<svg viewBox="0 0 361 168" fill="none" xmlns="http://www.w3.org/2000/svg">
<path d="M36.288 133.248H102.144V144H5.04V133.248H24.024V89.4H5.04V81H24.024V66.888C24.024 54.12 28.056 44.04 36.12 36.648C44.184 29.144 55.72 25.392 70.728 25.392C84.504 25.392 95.704 28.36 104.328 34.296L99.792 44.544C92.4 39.168 82.376 36.48 69.72 36.48C58.632 36.48 50.288 39.112 44.688 44.376C39.088 49.528 36.288 57.032 36.288 66.888V81H82.824V89.4H36.288V133.248ZM209.152 112.92C209.152 121.544 205.848 128.88 199.24 134.928C192.632 140.864 182.944 144.168 170.176 144.84V164.16H161.776V145.008C153.6 144.56 145.872 142.992 138.592 140.304C131.424 137.504 125.768 133.976 121.624 129.72L126.496 120.144C130.416 123.952 135.512 127.144 141.784 129.72C148.168 132.296 154.832 133.808 161.776 134.256V90.072C154.048 88.168 147.608 86.152 142.456 84.024C137.304 81.784 132.992 78.592 129.52 74.448C126.16 70.192 124.48 64.592 124.48 57.648C124.48 49.024 127.616 41.8 133.888 35.976C140.16 30.04 149.456 26.568 161.776 25.56V6.23999H170.176V25.392C176.56 25.616 182.72 26.68 188.656 28.584C194.704 30.376 199.912 32.784 204.28 35.808L200.08 45.72C195.488 42.808 190.616 40.512 185.464 38.832C180.312 37.152 175.216 36.2 170.176 35.976V80.496C178.464 82.512 185.24 84.584 190.504 86.712C195.768 88.728 200.192 91.864 203.776 96.12C207.36 100.376 209.152 105.976 209.152 112.92ZM136.744 57.312C136.744 63.136 138.872 67.56 143.128 70.584C147.496 73.608 153.712 76.184 161.776 78.312V36.312C153.488 36.984 147.216 39.28 142.96 43.2C138.816 47.008 136.744 51.712 136.744 57.312ZM170.176 134.256C179.024 133.584 185.688 131.4 190.168 127.704C194.648 124.008 196.888 119.304 196.888 113.592C196.888 107.544 194.592 103.008 190 99.984C185.408 96.96 178.8 94.384 170.176 92.256V134.256ZM310.328 133.92C324.328 133.92 335.864 129.216 344.936 119.808L353 127.704C347.736 133.416 341.408 137.728 334.016 140.64C326.624 143.552 318.504 145.008 309.656 145.008C299.912 145.008 290.896 143.16 282.608 139.464C274.32 135.656 267.32 130.392 261.608 123.672C256.008 116.952 252.144 109.224 250.016 100.488H230.528V93.096H248.672C248.336 90.52 248.168 87.888 248.168 85.2C248.168 82.4 248.336 79.768 248.672 77.304H230.528V69.912H250.016C252.144 61.176 256.008 53.448 261.608 46.728C267.32 40.008 274.32 34.8 282.608 31.104C290.896 27.296 299.912 25.392 309.656 25.392C318.504 25.392 326.624 26.848 334.016 29.76C341.408 32.672 347.736 36.928 353 42.528L344.936 50.424C335.752 41.128 324.216 36.48 310.328 36.48C298.904 36.48 288.88 39.56 280.256 45.72C271.744 51.88 265.976 59.944 262.952 69.912H320.576V77.304H261.104C260.768 79.768 260.6 82.4 260.6 85.2C260.6 87.888 260.768 90.52 261.104 93.096H320.576V100.488H262.952C265.976 110.456 271.744 118.52 280.256 124.68C288.88 130.84 298.904 133.92 310.328 133.92Z" fill="currentColor" />
</svg>
