<svg width="361" height="229" viewBox="0 0 361 229" fill="none" xmlns="http://www.w3.org/2000/svg">
<circle cx="288.5" cy="66.5" r="35.5" fill="transparent" stroke="currentColor" stroke-width="12"/>
<path d="M108 66.5C108 86.1061 92.1061 102 72.5 102C52.8939 102 37 86.1061 37 66.5C37 46.8939 52.8939 31 72.5 31C92.1061 31 108 46.8939 108 66.5Z" fill="transparent" stroke="currentColor" stroke-width="12"/>
<path d="M226.095 51.9742C226.095 77.3591 205.493 97.9484 180.067 97.9484C154.64 97.9484 134.038 77.3591 134.038 51.9742C134.038 26.5893 154.64 6 180.067 6C205.493 6 226.095 26.5893 226.095 51.9742Z" fill="transparent" stroke="currentColor" stroke-width="12"/>
<path d="M93.7254 198.057C91.5259 191.246 91.3326 181.637 93.7062 170.743C96.0609 159.937 100.854 148.296 108.114 137.597C122.583 116.273 146.621 98.9539 180.566 98.9539C214.489 98.9539 238.111 116.261 252.257 137.565C266.656 159.251 270.649 184.13 266.377 198.152C262.113 212.148 253.105 218.139 244.47 220.851C236.784 223.265 229.625 223.044 225.782 222.925C225.112 222.904 224.543 222.886 224.09 222.886H136.042C135.43 222.886 134.712 222.907 133.901 222.93C129.606 223.051 122.714 223.246 115.368 220.882C107.083 218.215 98.311 212.257 93.7254 198.057Z" fill="transparent" stroke="currentColor" stroke-width="12"/>
<path d="M12.9691 162C18.1185 130.616 43.1063 108 71.5 108C87.4152 108 102.26 115.105 113.141 126.878C115.775 123.857 118.607 121.014 121.618 118.369C108.715 104.534 91.021 96 71.5 96C35.7523 96 6.13199 124.619 0.84093 162C0.287262 165.912 0 169.919 0 174H91.793C92.3384 169.907 93.1589 165.9 94.2354 162H12.9691Z" fill="currentColor"/>
<path d="M270.207 174H361C361 169.919 360.713 165.912 360.159 162C354.868 124.619 325.248 96 289.5 96C270.205 96 252.695 104.338 239.833 117.89C242.863 120.51 245.717 123.329 248.374 126.327C259.206 114.884 273.835 108 289.5 108C317.894 108 342.881 130.616 348.031 162H267.765C268.841 165.9 269.662 169.907 270.207 174Z" fill="currentColor"/>
</svg>
