<svg viewBox="0 0 288 315" fill="none" xmlns="http://www.w3.org/2000/svg">
<path d="M170 8.83393L148 40H108L86.0004 8.83393C85.4219 8.0143 86.2759 6.9483 87.202 7.33417L107.578 15.824C107.846 15.9357 108.149 15.9253 108.409 15.7953L127.553 6.22361C127.834 6.08284 128.166 6.08284 128.447 6.22361L147.591 15.7953C147.851 15.9253 148.154 15.9357 148.422 15.824L168.798 7.33417C169.724 6.9483 170.578 8.0143 170 8.83393Z" fill="var(--bg)" stroke="var(--primary)" stroke-width="12"/>
<path d="M123.533 64H131.78C175.733 64 213.256 95.7464 220.537 139.092L240.685 259.043C244.988 284.659 225.24 308 199.265 308H56.5167C30.6063 308 10.876 284.769 15.0708 259.2L34.7207 139.429C41.8575 95.9289 79.4516 64 123.533 64Z" fill="var(--bg)" stroke="var(--primary)" stroke-width="12"/>
<rect x="92" y="40" width="72" height="24" rx="12" fill="var(--bg)" stroke="var(--primary)" stroke-width="12"/>
<path d="M161.08 206.934C161.08 213.57 158.56 219.198 153.52 223.818C148.564 228.438 141.34 231.126 131.848 231.882V246.12H123.784V231.882C117.652 231.546 111.814 230.412 106.27 228.48C100.81 226.464 96.442 223.944 93.166 220.92L97.828 211.092C100.852 213.864 104.674 216.174 109.294 218.022C113.914 219.786 118.744 220.836 123.784 221.172V191.94C117.904 190.512 112.99 188.958 109.042 187.278C105.178 185.598 101.902 183.12 99.214 179.844C96.61 176.568 95.308 172.284 95.308 166.992C95.308 160.356 97.702 154.728 102.49 150.108C107.362 145.488 114.46 142.8 123.784 142.044V127.68H131.848V141.918C136.636 142.086 141.256 142.842 145.708 144.186C150.244 145.53 154.15 147.336 157.426 149.604L153.268 159.684C146.464 155.4 139.324 153.048 131.848 152.628V181.986C137.98 183.498 143.02 185.094 146.968 186.774C150.916 188.37 154.234 190.806 156.922 194.082C159.694 197.274 161.08 201.558 161.08 206.934ZM107.656 166.488C107.656 170.1 109.042 172.914 111.814 174.93C114.586 176.946 118.576 178.626 123.784 179.97V152.754C118.408 153.426 114.376 155.022 111.688 157.542C109 159.978 107.656 162.96 107.656 166.488ZM131.848 221.046C137.476 220.542 141.676 219.114 144.448 216.762C147.304 214.326 148.732 211.302 148.732 207.69C148.732 203.994 147.262 201.18 144.322 199.248C141.466 197.232 137.308 195.468 131.848 193.956V221.046Z" fill="var(--primary)"/>
<circle cx="229" cy="253" r="24" fill="var(--bg)"/>
<circle cx="229" cy="253" r="14" fill="var(--bg)" stroke="var(--primary)" stroke-width="8"/>
<line x1="213.514" y1="308.399" x2="281.396" y2="240.517" stroke="var(--bg)" stroke-width="16"/>
<line x1="216.172" y1="305.401" x2="278.401" y2="243.172" stroke="var(--primary)" stroke-width="8"/>
<circle cx="267" cy="294" r="14" fill="var(--bg)" stroke="var(--primary)" stroke-width="8"/>
</svg>
