<svg viewBox="0 0 58 22" fill="none" xmlns="http://www.w3.org/2000/svg">
<title>Uber Eats</title>
<g clip-path="url(#clip0)">
<path d="M30.4137 0.249329H36.8487V1.936H32.1511V4.34866H36.724V5.98644H32.1511V8.43272H36.8487V10.1194H30.4131V0.249329H30.4137ZM54.3369 10.3058C56.3101 10.3058 57.4218 9.29255 57.4218 7.89311C57.4218 6.897 56.7636 6.15572 55.3855 5.83488L53.9286 5.51405C53.0835 5.346 52.817 5.17672 52.817 4.83877C52.817 4.39938 53.2253 4.12988 53.9763 4.12988C54.7903 4.12988 55.3855 4.36577 55.5573 5.17672H57.2641C57.17 3.65811 56.1519 2.64488 54.0845 2.64488C52.2988 2.64488 51.0473 3.4375 51.0473 4.97322C51.0473 6.03533 51.7366 6.72711 53.2228 7.06505L54.8514 7.47022C55.4943 7.6065 55.666 7.79105 55.666 8.07766C55.666 8.53233 55.1808 8.82077 54.398 8.82077C53.4123 8.82077 52.8488 8.5855 52.6282 7.77394H50.9049C51.1591 9.29255 52.2078 10.3058 54.3369 10.3058ZM50.4471 8.46633H49.1638C48.7715 8.46633 48.5209 8.28177 48.5209 7.89311V4.48433H50.4471V2.83005H48.5209V0.756551H46.7976V2.83188H45.4984V4.48555H46.7976V8.36427C46.7976 9.34266 47.4405 10.1182 48.5991 10.1182H50.4465V8.46572L50.4471 8.46633ZM44.7699 2.83188V10.12H43.0637V9.46183C42.475 10.0041 41.7038 10.3051 40.9034 10.3052C38.8831 10.3052 37.3015 8.60139 37.3015 6.47533C37.3015 4.34988 38.8831 2.64611 40.9034 2.64611C41.7174 2.64611 42.4685 2.94983 43.0637 3.48944V2.83188H44.7705H44.7699ZM43.0949 6.47594C43.0949 5.22744 42.1861 4.24844 41.0428 4.24844C39.9153 4.24844 38.9906 5.22744 38.9906 6.47655C38.9906 7.72505 39.9153 8.70405 41.0428 8.70405C42.1874 8.70222 43.0949 7.72505 43.0949 6.47594Z" fill="#06C167"/>
<path d="M4.12389 8.96377C5.39256 8.96377 6.374 7.90655 6.374 6.34088V0.249939H7.749V10.1194H6.38744V9.20272C6.08538 9.54653 5.713 9.82146 5.2955 10.0089C4.87799 10.1964 4.42509 10.292 3.96744 10.2893C2.00333 10.2893 0.5 8.75111 0.5 6.42583V0.249939H1.875V6.34088C1.87317 7.93405 2.84178 8.96377 4.12389 8.96377ZM8.76833 10.1188H10.0773V9.21677C10.6793 9.87983 11.5293 10.2893 12.4582 10.2893C14.4205 10.2893 15.966 8.61116 15.966 6.53949C15.966 4.45255 14.4205 2.77444 12.4582 2.77444C11.5293 2.77444 10.6921 3.18327 10.0902 3.84694V0.249939H8.76833V10.1194V10.1188ZM12.3672 9.03344C11.0851 9.03344 10.0633 7.92061 10.0633 6.53766C10.0633 5.14127 11.0961 4.04188 12.3672 4.04188C13.6236 4.04188 14.657 5.14127 14.657 6.53766C14.6582 7.92061 13.6242 9.03344 12.3672 9.03344ZM19.9181 2.78788C17.9686 2.78788 16.4897 4.49472 16.4897 6.52422C16.4897 8.66677 18.0346 10.2734 20.036 10.2734C21.2533 10.2734 22.247 9.69527 22.9143 8.73644L21.9592 7.97499C21.4611 8.69427 20.8078 9.03222 20.0342 9.03222C18.9085 9.03222 18.0065 8.15833 17.8238 6.98744H23.2547V6.52238C23.2547 4.38105 21.8424 2.78849 19.9181 2.78849V2.78788ZM17.8507 5.86177C18.0866 4.76299 18.9103 4.02966 19.8918 4.02966C20.8726 4.02966 21.6976 4.76299 21.9194 5.86238H17.8507V5.86177ZM27.351 4.19833V2.87283H26.8927C26.1599 2.87283 25.6234 3.23949 25.2958 3.81761V2.92905H23.9868V10.1194H25.3081V6.03044C25.3081 4.91699 25.9369 4.19772 26.7992 4.19772H27.351V4.19833Z" fill="black"/>
<path d="M0.573242 15.7777H1.3188V15.1054C1.3188 14.8323 1.40374 14.6055 1.57424 14.4253C1.74963 14.245 2.00813 14.1552 2.34852 14.1552H3.06474V14.9808H2.51658C2.35158 14.9808 2.26846 15.0663 2.26846 15.2368V15.7777H3.06474V16.6027H2.26846V19.5555H1.31819V16.6033H0.573242V15.7777ZM7.41891 17.6703C7.42 17.9375 7.36264 18.2018 7.25085 18.4445C7.14531 18.6817 6.99367 18.8954 6.80474 19.0734C6.62019 19.2537 6.4008 19.3973 6.14719 19.5042C5.89203 19.6078 5.61893 19.6599 5.34358 19.6576C5.05635 19.6576 4.78563 19.6069 4.53263 19.5048C4.28941 19.4011 4.06655 19.2551 3.87446 19.0734C3.68885 18.8926 3.53768 18.6795 3.42835 18.4445C3.32133 18.2005 3.26678 17.9367 3.26824 17.6703C3.26824 17.3971 3.32141 17.1417 3.42896 16.9027C3.53679 16.6649 3.68809 16.4494 3.87508 16.2672C4.06597 16.0861 4.28897 15.9423 4.53263 15.843C4.78931 15.7352 5.06518 15.6805 5.34358 15.6823C5.6308 15.6823 5.89908 15.7361 6.14719 15.843C6.39225 15.9399 6.61588 16.084 6.80535 16.2672C6.9948 16.4425 7.14391 16.6522 7.25085 16.8954C7.36269 17.1337 7.41891 17.3922 7.41891 17.6703ZM6.46863 17.6703C6.46863 17.5095 6.43991 17.361 6.38124 17.2242C6.29774 17.0178 6.15417 16.8413 5.96915 16.7175C5.78412 16.5937 5.56618 16.5284 5.34358 16.5299C5.18774 16.5299 5.04169 16.5593 4.9048 16.6179C4.76993 16.6747 4.6476 16.7575 4.54483 16.8616C4.44205 16.9657 4.36086 17.0892 4.30591 17.2248C4.24645 17.3657 4.2165 17.5173 4.21791 17.6703C4.21791 17.831 4.24724 17.9819 4.30591 18.1231C4.42045 18.3927 4.63515 18.6074 4.9048 18.722C5.04169 18.7807 5.18774 18.81 5.34358 18.81C5.49941 18.81 5.64546 18.7807 5.78174 18.7226C6.05159 18.6081 6.2665 18.3934 6.38124 18.1237C6.44012 17.9798 6.46983 17.8257 6.46863 17.6703ZM9.77963 16.6179C9.55108 16.6179 9.35797 16.6955 9.20274 16.8514C9.0518 17.0078 8.97602 17.2315 8.97602 17.5236V19.5555H8.01902V15.7777H8.96869V16.1871C9.06647 16.0453 9.18808 15.9359 9.33413 15.8577C9.5 15.7765 9.683 15.7364 9.86763 15.741H10.1231V16.6179H9.77963ZM12.2339 19.5555V14.4405H14.3165C14.5207 14.4384 14.7233 14.4766 14.9126 14.553C15.1019 14.6295 15.2742 14.7427 15.4196 14.886C15.5607 15.0223 15.6701 15.183 15.7484 15.3682C15.8315 15.5534 15.873 15.7532 15.873 15.9671C15.873 16.2788 15.785 16.5599 15.6102 16.808C15.4438 17.0484 15.2099 17.234 14.938 17.3415L16.2085 19.5555H15.0975L13.9358 17.4655H13.2196V19.5555H12.2332H12.2339ZM13.2202 15.3022V16.6399H14.1552C14.3752 16.6399 14.55 16.5764 14.6814 16.4499C14.8134 16.3185 14.8787 16.1572 14.8787 15.9671C14.8787 15.7777 14.8134 15.6188 14.6814 15.4923C14.55 15.3658 14.3746 15.3028 14.1558 15.3028H13.2202V15.3022ZM16.2709 17.6629C16.2709 17.4002 16.3197 17.149 16.4169 16.91C16.6141 16.4368 16.9856 16.0574 17.4546 15.8504C17.6929 15.7434 17.9514 15.6897 18.2289 15.6897C18.5118 15.6897 18.7697 15.741 19.0037 15.843C19.2421 15.9408 19.4474 16.0795 19.6179 16.2598C19.7933 16.4352 19.9271 16.6473 20.0194 16.8954C20.1172 17.1441 20.1661 17.4148 20.1661 17.7069V17.9844H17.2499C17.3134 18.2331 17.4393 18.4372 17.63 18.5985C17.8194 18.7544 18.0461 18.832 18.3095 18.832C18.5142 18.832 18.6945 18.7953 18.8504 18.722C19.0111 18.6444 19.162 18.5154 19.3032 18.3352L19.9687 18.832C19.7786 19.0948 19.5421 19.2977 19.2598 19.4388C18.9669 19.5837 18.6436 19.6564 18.3169 19.6509C18.0296 19.6509 17.7589 19.602 17.5059 19.5042C17.265 19.407 17.0443 19.2659 16.8551 19.088C16.672 18.9084 16.5257 18.6948 16.4242 18.4592C16.3203 18.2067 16.2681 17.936 16.2709 17.6629ZM18.2075 16.5079C17.9832 16.5079 17.7858 16.5739 17.6147 16.7053C17.4497 16.8373 17.3324 17.02 17.2645 17.2535H19.2011C19.1435 17.0356 19.014 16.8435 18.8337 16.7082C18.6534 16.5729 18.4328 16.5024 18.2075 16.5079ZM22.2989 19.6429C22.0712 19.646 21.8445 19.6141 21.6266 19.5482C21.4399 19.4871 21.2645 19.3958 21.1072 19.2781C20.9632 19.1633 20.8398 19.0249 20.7424 18.8687C20.6499 18.7131 20.5856 18.5424 20.5523 18.3645H21.4586C21.5075 18.5539 21.6071 18.6933 21.758 18.7807C21.9139 18.8638 22.0941 18.9053 22.2989 18.9053C22.4742 18.9053 22.6081 18.8687 22.701 18.7953C22.7445 18.7634 22.7798 18.7216 22.8039 18.6734C22.828 18.6251 22.8403 18.5718 22.8397 18.5179C22.8395 18.4789 22.8308 18.4404 22.8144 18.4051C22.7979 18.3698 22.774 18.3384 22.7444 18.3132C22.6814 18.2496 22.5861 18.2013 22.4596 18.1665L21.6774 17.9844C20.9709 17.8133 20.6177 17.4435 20.6177 16.8734C20.6177 16.6931 20.6519 16.5299 20.7204 16.3845C20.7937 16.2378 20.8933 16.1138 21.0198 16.0117C21.1508 15.9021 21.3025 15.82 21.4659 15.7703C21.6364 15.7117 21.824 15.6823 22.0281 15.6823C22.2671 15.6823 22.484 15.7165 22.679 15.785C22.8739 15.8479 23.0395 15.9378 23.1758 16.0551C23.317 16.1718 23.4288 16.3112 23.5119 16.4719C23.5993 16.6277 23.6586 16.7958 23.6873 16.976H22.789C22.7679 16.8858 22.7279 16.801 22.6716 16.7273C22.6207 16.6567 22.5561 16.597 22.4816 16.5519C22.4122 16.5077 22.3357 16.4756 22.2555 16.4572C22.1798 16.4331 22.1008 16.4208 22.0214 16.4205C21.865 16.4205 21.7482 16.4548 21.67 16.5226C21.6333 16.5528 21.6039 16.5908 21.5838 16.6338C21.5637 16.6768 21.5535 16.7238 21.5539 16.7713C21.5539 16.9663 21.7042 17.1001 22.0061 17.1734L22.7297 17.3488C23.4221 17.5138 23.768 17.8799 23.768 18.4445C23.7692 18.6074 23.7345 18.7686 23.6662 18.9165C23.598 19.0644 23.4979 19.1954 23.3732 19.3001C23.2365 19.4127 23.0803 19.4993 22.9124 19.5555C22.7138 19.6168 22.5067 19.6465 22.2989 19.6435V19.6429ZM25.6832 19.5555C25.3373 19.5555 25.0764 19.4651 24.901 19.2854C24.7305 19.1052 24.6455 18.8784 24.6455 18.6053V16.6039H23.9073V15.7783H24.6455V14.6819H25.5952V15.7783H26.4287V16.6033H25.5952V18.4378C25.5952 18.5356 25.627 18.6089 25.6905 18.6578C25.7535 18.7061 25.8415 18.7305 25.9533 18.7305H26.4281V19.5555H25.6826H25.6832ZM26.7801 18.4959C26.7801 18.1549 26.8895 17.8897 27.1089 17.6996C27.3277 17.5095 27.64 17.4002 28.0439 17.3702L29.1549 17.2902V17.1435C29.1549 16.9589 29.0938 16.8129 28.9722 16.7053C28.8555 16.5984 28.685 16.5446 28.4607 16.5446C28.1246 16.5446 27.7909 16.657 27.4597 16.8807L27.0576 16.2012C27.2718 16.043 27.5082 15.9174 27.7591 15.8284C28.0228 15.739 28.2996 15.6946 28.578 15.697C28.8017 15.697 29.0058 15.7288 29.1916 15.7917C29.3767 15.8553 29.535 15.9457 29.6664 16.0624C29.7978 16.1792 29.9005 16.3203 29.9732 16.4865C30.0465 16.6473 30.0832 16.8275 30.0832 17.0268V18.5105C30.0832 18.6572 30.1535 18.7299 30.2952 18.7299H30.492V19.5555H30.0465C29.8614 19.5555 29.7031 19.5164 29.5717 19.4388C29.441 19.3617 29.3366 19.2469 29.2722 19.1094C29.1384 19.2818 28.9654 19.4196 28.7675 19.5115C28.5539 19.6071 28.3219 19.6547 28.0879 19.6509C27.8985 19.6509 27.7225 19.6215 27.5624 19.5629C27.4124 19.5079 27.2736 19.4261 27.1529 19.3215C27.0363 19.2198 26.9417 19.0955 26.8749 18.956C26.8109 18.8111 26.7786 18.6543 26.7801 18.4959ZM27.6931 18.4885C27.6931 18.6199 27.7494 18.725 27.8618 18.8027C27.9736 18.8809 28.1197 18.92 28.3 18.92C28.4167 18.92 28.5261 18.9029 28.6287 18.8687C28.7279 18.8337 28.8214 18.7843 28.9062 18.722C28.9844 18.659 29.0455 18.5857 29.0895 18.5032C29.1333 18.42 29.1558 18.3272 29.1549 18.2331V17.9917L28.1759 18.0791C27.8545 18.1084 27.6931 18.2447 27.6931 18.4885ZM30.932 15.7777H31.889V17.9917C31.889 18.2258 31.9599 18.4201 32.1011 18.5765C32.2477 18.7275 32.4372 18.8027 32.6712 18.8027C32.9053 18.8027 33.0947 18.7293 33.2414 18.5839C33.3875 18.4323 33.4602 18.2355 33.4602 17.9911V15.7777H34.4178V19.5555H33.4602V19.2194C33.3288 19.3557 33.173 19.4608 32.9927 19.5335C32.8119 19.6078 32.618 19.6452 32.4225 19.6435C32.2037 19.6435 32.0009 19.6069 31.8163 19.5335C31.6417 19.4596 31.4828 19.353 31.3482 19.2194C31.2166 19.0877 31.1124 18.9314 31.0414 18.7593C30.9676 18.5757 30.9302 18.3796 30.9314 18.1818V15.7777H30.932ZM36.9124 16.6179C36.6838 16.6179 36.4907 16.6955 36.3349 16.8514C36.1839 17.0078 36.1087 17.2315 36.1087 17.5236V19.5555H35.1511V15.7777H36.1014V16.1871C36.1992 16.0453 36.3208 15.9359 36.4669 15.8577C36.6327 15.7765 36.8157 15.7364 37.0004 15.741H37.2558V16.6179H36.9124ZM37.3328 18.4959C37.3328 18.1549 37.4428 17.8897 37.6616 17.6996C37.881 17.5095 38.1932 17.4002 38.5966 17.3702L39.7082 17.2902V17.1435C39.7082 16.9589 39.6471 16.8129 39.5249 16.7053C39.4087 16.5984 39.2376 16.5446 39.0134 16.5446C38.6772 16.5446 38.3436 16.657 38.0124 16.8807L37.6109 16.2012C37.8251 16.043 38.0615 15.9174 38.3124 15.8284C38.5759 15.7391 38.8525 15.6947 39.1307 15.697C39.339 15.6946 39.5463 15.7266 39.7442 15.7917C39.9294 15.8553 40.0877 15.9457 40.2197 16.0624C40.3511 16.1792 40.4531 16.3203 40.5265 16.4865C40.5998 16.6473 40.6365 16.8275 40.6365 17.0268V18.5105C40.6365 18.6572 40.7067 18.7299 40.8479 18.7299H41.0453V19.5555H40.5992C40.414 19.5555 40.2557 19.5164 40.1244 19.4388C39.9937 19.3617 39.8893 19.2469 39.8249 19.1094C39.6913 19.2817 39.5184 19.4196 39.3207 19.5115C39.1072 19.6071 38.8752 19.6547 38.6412 19.6509C38.4511 19.6509 38.2757 19.6215 38.115 19.5629C37.965 19.5079 37.8263 19.4261 37.7056 19.3215C37.5892 19.2198 37.4948 19.0954 37.4281 18.956C37.3639 18.8112 37.3314 18.6543 37.3328 18.4959ZM38.2464 18.4885C38.2464 18.6199 38.3026 18.725 38.4145 18.8027C38.5263 18.8809 38.6724 18.92 38.8526 18.92C38.97 18.92 39.0794 18.9029 39.182 18.8687C39.2812 18.8337 39.3747 18.7843 39.4595 18.722C39.5371 18.659 39.5982 18.5857 39.6422 18.5032C39.6862 18.42 39.7089 18.3272 39.7082 18.2331V17.9917L38.7286 18.0791C38.4071 18.1084 38.2458 18.2447 38.2458 18.4885H38.2464ZM45.042 19.5555H44.085V17.3415C44.085 17.0928 44.0116 16.8954 43.865 16.7493C43.7244 16.6027 43.5368 16.5299 43.3027 16.5299C43.0687 16.5299 42.8786 16.6033 42.7326 16.7493C42.5865 16.8905 42.5138 17.0879 42.5138 17.3415V19.5555H41.5562V15.7777H42.5138V16.0991C42.6452 15.9622 42.7986 15.8577 42.974 15.7844C43.1542 15.711 43.3467 15.675 43.5515 15.675C43.7702 15.675 43.9701 15.7141 44.1504 15.7923C44.3355 15.8657 44.4938 15.9695 44.6258 16.1064C44.7572 16.2378 44.8592 16.3937 44.9326 16.5739C45.0059 16.7542 45.0426 16.9467 45.0426 17.1514V19.5555H45.042ZM47.2242 19.5555C46.8784 19.5555 46.618 19.4651 46.442 19.2854C46.2721 19.1052 46.1866 18.8784 46.1866 18.6053V16.6039H45.4484V15.7783H46.1866V14.6819H47.1369V15.7783H47.9698V16.6033H47.1369V18.4378C47.1369 18.5356 47.168 18.6089 47.2316 18.6578C47.2951 18.7061 47.3825 18.7305 47.4944 18.7305H47.9698V19.5555H47.2242ZM49.9804 19.6435C49.7527 19.6464 49.526 19.6143 49.3081 19.5482C49.1219 19.4869 48.9468 19.3957 48.7899 19.2781C48.6457 19.1634 48.5221 19.0249 48.4245 18.8687C48.332 18.7131 48.2676 18.5424 48.2344 18.3645H49.1407C49.1896 18.5539 49.2892 18.6933 49.4401 18.7807C49.596 18.8638 49.7762 18.9053 49.981 18.9053C50.1564 18.9053 50.2902 18.8687 50.3831 18.7953C50.4266 18.7634 50.4619 18.7216 50.486 18.6734C50.5101 18.6251 50.5224 18.5718 50.5218 18.5179C50.5216 18.4789 50.513 18.4404 50.4965 18.4051C50.48 18.3698 50.4562 18.3384 50.4265 18.3132C50.3635 18.2496 50.2682 18.2013 50.1417 18.1665L49.3595 17.9844C48.653 17.8133 48.3004 17.4435 48.3004 16.8734C48.3004 16.6931 48.334 16.5299 48.4025 16.3845C48.4758 16.2378 48.5754 16.1138 48.7019 16.0117C48.8329 15.9021 48.9846 15.82 49.148 15.7703C49.3185 15.7117 49.5061 15.6823 49.7102 15.6823C49.9492 15.6823 50.1661 15.7165 50.3611 15.785C50.556 15.8479 50.7216 15.9378 50.8579 16.0551C50.9991 16.1718 51.1115 16.3112 51.194 16.4719C51.282 16.6277 51.3407 16.7958 51.3694 16.976H50.4711C50.45 16.8858 50.41 16.801 50.3537 16.7273C50.3028 16.6567 50.2381 16.5971 50.1637 16.5519C50.0943 16.5077 50.0178 16.4756 49.9376 16.4572C49.8619 16.4331 49.783 16.4208 49.7035 16.4205C49.5471 16.4205 49.4304 16.4548 49.3521 16.5226C49.3154 16.5527 49.2859 16.5907 49.2658 16.6338C49.2457 16.6768 49.2356 16.7238 49.236 16.7713C49.236 16.9663 49.3864 17.1001 49.6882 17.1734L50.4118 17.3488C51.1036 17.5138 51.4495 17.8799 51.4495 18.4445C51.4495 18.6157 51.4159 18.7739 51.3474 18.92C51.2789 19.0663 51.1792 19.1958 51.0553 19.2995C50.9187 19.4123 50.7625 19.4991 50.5945 19.5555C50.3959 19.6168 50.1888 19.6465 49.981 19.6435H49.9804Z" fill="black"/>
</g>
<defs>
<clipPath id="clip0">
<rect width="57.4444" height="22" fill="white" transform="translate(0.5)"/>
</clipPath>
</defs>
</svg>
