<svg viewBox="0 0 500 355" fill="none" xmlns="http://www.w3.org/2000/svg">
<path d="M331.962 309.754L447.028 270.133C455.383 267.257 459.824 258.151 456.948 249.796L392.308 62.0685C389.431 53.7134 380.326 49.2724 371.97 52.1493L256.904 91.7697C248.549 94.6466 244.108 103.752 246.985 112.107L311.625 299.835C314.502 308.19 323.607 312.631 331.962 309.754Z" fill="#0073E5"/>
<path d="M393.713 75.9875L409.056 70.7045C423.155 65.8497 438.52 73.3438 443.375 87.4431L461.76 140.836C466.614 154.935 459.12 170.3 445.021 175.155L429.678 180.438" stroke="#0073E5" fill="transparent" stroke-width="21"/>
<ellipse cx="267.462" cy="79.371" rx="28.0977" ry="27.5774" transform="rotate(-19 267.462 79.371)" fill="#99CCFF"/>
<ellipse cx="296.11" cy="81.0631" rx="25.4961" ry="27.0571" transform="rotate(-19 296.11 81.0631)" fill="#99CCFF"/>
<ellipse cx="318.982" cy="64.3825" rx="23.4148" ry="24.9758" transform="rotate(-19 318.982 64.3825)" fill="#99CCFF"/>
<ellipse cx="338.919" cy="50.3636" rx="22.8944" ry="23.4148" transform="rotate(-19 338.919 50.3636)" fill="#99CCFF"/>
<ellipse cx="370.81" cy="47.0872" rx="18.7318" ry="19.2521" transform="rotate(-19 370.81 47.0872)" fill="#99CCFF"/>
<circle cx="248.033" cy="94.8657" r="19.2521" transform="rotate(-19 248.033 94.8657)" fill="#99CCFF"/>
<ellipse cx="245.51" cy="122.7" rx="15.0895" ry="16.6505" transform="rotate(-19 245.51 122.7)" fill="#99CCFF"/>
<path d="M168.038 343.055L52.9717 303.434C44.6166 300.558 40.1756 291.452 43.0525 283.097L107.692 95.3695C110.569 87.0144 119.675 82.5734 128.03 85.4503L243.096 125.071C251.451 127.948 255.892 137.053 253.015 145.408L188.375 333.136C185.498 341.491 176.393 345.932 168.038 343.055Z" fill="#0073E5"/>
<path d="M106.287 109.289L90.9443 104.005C76.845 99.1507 61.4797 106.645 56.6249 120.744L38.2404 174.137C33.3857 188.236 40.8798 203.601 54.9791 208.456L70.3221 213.739" stroke="#0073E5" fill="transparent" stroke-width="21"/>
<ellipse rx="28.0977" ry="27.5774" transform="matrix(-0.945519 -0.325568 -0.325568 0.945519 232.538 112.672)" fill="#99CCFF"/>
<ellipse rx="25.4961" ry="27.0571" transform="matrix(-0.945519 -0.325568 -0.325568 0.945519 203.89 114.364)" fill="#99CCFF"/>
<ellipse rx="23.4148" ry="24.9758" transform="matrix(-0.945519 -0.325568 -0.325568 0.945519 181.018 97.6835)" fill="#99CCFF"/>
<ellipse rx="22.8944" ry="23.4148" transform="matrix(-0.945519 -0.325568 -0.325568 0.945519 161.081 83.6646)" fill="#99CCFF"/>
<ellipse rx="18.7318" ry="19.2521" transform="matrix(-0.945519 -0.325568 -0.325568 0.945519 129.19 80.3882)" fill="#99CCFF"/>
<circle r="19.2521" transform="matrix(-0.945519 -0.325568 -0.325568 0.945519 251.967 128.167)" fill="#99CCFF"/>
<ellipse rx="15.0895" ry="16.6505" transform="matrix(-0.945519 -0.325568 -0.325568 0.945519 254.49 156.001)" fill="#99CCFF"/>
</svg>
