<svg viewBox="0 0 384 344" fill="none" xmlns="http://www.w3.org/2000/svg">
<rect y="24" width="384" height="320" rx="32" fill="#4CA6FF"/>
<path d="M0 56C0 38.3269 14.3269 24 32 24H352C369.673 24 384 38.3269 384 56V72H0V56Z" fill="#222222"/>
<rect x="48" y="184" width="48" height="48" rx="8" fill="#99CCFF"/>
<rect x="48" y="264" width="48" height="48" rx="8" fill="#99CCFF"/>
<rect x="128" y="104" width="48" height="48" rx="8" fill="#99CCFF"/>
<rect x="128" y="184" width="48" height="48" rx="8" fill="#99CCFF"/>
<rect x="128" y="264" width="48" height="48" rx="8" fill="#99CCFF"/>
<rect x="208" y="104" width="48" height="48" rx="8" fill="#99CCFF"/>
<rect x="208" y="184" width="48" height="48" rx="8" fill="#99CCFF"/>
<rect x="208" y="264" width="48" height="48" rx="8" fill="#99CCFF"/>
<rect x="288" y="104" width="48" height="48" rx="8" fill="#99CCFF"/>
<rect x="288" y="184" width="48" height="48" rx="8" fill="#99CCFF"/>
<rect x="288" y="264" width="48" height="48" rx="8" fill="#99CCFF"/>
<rect x="48" y="104" width="48" height="48" rx="8" fill="#99CCFF"/>
<rect x="96" width="16" height="48" fill="#C4C4C4"/>
<rect x="184" width="16" height="48" fill="#C4C4C4"/>
<rect x="272" width="16" height="48" fill="#C4C4C4"/>
</svg>
