<svg viewBox="0 0 384 352" fill="none" xmlns="http://www.w3.org/2000/svg">
<rect width="384" height="288" rx="24" fill="#99CCFF"/>
<rect x="32" y="32" width="320" height="224" rx="16" fill="#4CA6FF"/>
<path d="M100 352H284C286.209 352 288 350.209 288 348V324C288 321.791 286.209 320 284 320H241.657C240.596 320 239.579 319.579 238.828 318.828L209.172 289.172C208.421 288.421 207.404 288 206.343 288H177.586C176.567 288 175.587 288.389 174.845 289.087L143.155 318.913C142.413 319.611 141.433 320 140.414 320H100C97.7909 320 96 321.791 96 324V348C96 350.209 97.7909 352 100 352Z" fill="#0073E5"/>
</svg>
