<svg viewBox="0 0 1920 967" fill="none" xmlns="http://www.w3.org/2000/svg">
<path d="M0 104C181.203 302.386 196.119 632.776 464 612C649.618 597.604 840.261 507.668 842 321.5C843.619 148.161 692.846 15.9322 519.5 16.5C277.814 17.2916 259.195 388.427 351 612C456.088 867.921 785.896 1055.06 1004.5 885.5C1129.59 788.469 1050.63 626.376 1158.5 510.5C1251.61 410.482 1330.5 307.636 1463.5 339C1633.98 379.202 1640 684.5 1591 769C1542 853.5 1434.5 934.5 1321 824.5C1207.5 714.5 1534.89 123.927 1818 240.5C1860.37 257.947 1883.34 271.008 1920 298.5" stroke="#178757" stroke-width="32" stroke-dasharray="48 48"/>
</svg>
