<svg viewBox="0 0 384 288" fill="none" xmlns="http://www.w3.org/2000/svg">
<rect width="384" height="288" rx="16" fill="#99CCFF"/>
<path d="M32 166.256V240C32 248.837 39.1634 256 48 256H336C344.837 256 352 248.837 352 240V134.627C352 130.384 350.314 126.314 347.314 123.314L266.725 42.7246C260.711 36.7111 251.044 36.4527 244.718 42.1364L138.171 137.862C132.314 143.124 123.499 143.343 117.388 138.378L91.6579 117.472C85.1038 112.147 75.5395 112.832 69.8116 119.037L36.2431 155.403C33.5149 158.359 32 162.233 32 166.256Z" fill="#0073E5"/>
<path d="M96 64C96 81.6731 81.6731 96 64 96C46.3269 96 32 81.6731 32 64C32 46.3269 46.3269 32 64 32C81.6731 32 96 46.3269 96 64Z" fill="#4CA6FF"/>
</svg>
