<svg width="64" height="64" viewBox="0 0 64 64" fill="none" xmlns="http://www.w3.org/2000/svg">
<path d="M45 56H19C16.242 56 14 53.756 14 51V19C14 16.244 16.242 14 19 14H23C23.552 14 24 14.448 24 15C24 15.552 23.552 16 23 16H19C17.346 16 16 17.346 16 19V51C16 52.654 17.346 54 19 54H45C46.654 54 48 52.654 48 51V19C48 17.346 46.654 16 45 16H41C40.448 16 40 15.552 40 15C40 14.448 40.448 14 41 14H45C47.758 14 50 16.244 50 19V51C50 53.756 47.758 56 45 56Z" fill="#003D73"/>
<path d="M39 20H25C23.346 20 22 18.654 22 17V13C22 12.448 22.448 12 23 12H27.1C27.564 9.72 29.586 8 32 8C34.414 8 36.436 9.72 36.9 12H41C41.552 12 42 12.448 42 13V17C42 18.654 40.654 20 39 20ZM24 14V17C24 17.552 24.45 18 25 18H39C39.55 18 40 17.552 40 17V14H36C35.448 14 35 13.552 35 13C35 11.346 33.654 10 32 10C30.346 10 29 11.346 29 13C29 13.552 28.552 14 28 14H24Z" fill="#003D73"/>
<path d="M43 28H21C20.448 28 20 27.552 20 27C20 26.448 20.448 26 21 26H43C43.552 26 44 26.448 44 27C44 27.552 43.552 28 43 28Z" fill="#003D73"/>
<path d="M43 34H21C20.448 34 20 33.552 20 33C20 32.448 20.448 32 21 32H43C43.552 32 44 32.448 44 33C44 33.552 43.552 34 43 34Z" fill="#003D73"/>
<path d="M43 40H21C20.448 40 20 39.552 20 39C20 38.448 20.448 38 21 38H43C43.552 38 44 38.448 44 39C44 39.552 43.552 40 43 40Z" fill="#003D73"/>
<path d="M43 46H21C20.448 46 20 45.552 20 45C20 44.448 20.448 44 21 44H43C43.552 44 44 44.448 44 45C44 45.552 43.552 46 43 46Z" fill="#003D73"/>
</svg>
