<svg viewBox="0 0 36 48" fill="none" xmlns="http://www.w3.org/2000/svg">
<path d="M31 48H5C2.242 48 0 45.756 0 43V11C0 8.244 2.242 6 5 6H9C9.552 6 10 6.448 10 7C10 7.552 9.552 8 9 8H5C3.346 8 2 9.346 2 11V43C2 44.654 3.346 46 5 46H31C32.654 46 34 44.654 34 43V11C34 9.346 32.654 8 31 8H27C26.448 8 26 7.552 26 7C26 6.448 26.448 6 27 6H31C33.758 6 36 8.244 36 11V43C36 45.756 33.758 48 31 48Z" fill="#003D73"/>
<path d="M25 12H11C9.346 12 8 10.654 8 9V5C8 4.448 8.448 4 9 4H13.1C13.564 1.72 15.586 0 18 0C20.414 0 22.436 1.72 22.9 4H27C27.552 4 28 4.448 28 5V9C28 10.654 26.654 12 25 12ZM10 6V9C10 9.552 10.45 10 11 10H25C25.55 10 26 9.552 26 9V6H22C21.448 6 21 5.552 21 5C21 3.346 19.654 2 18 2C16.346 2 15 3.346 15 5C15 5.552 14.552 6 14 6H10Z" fill="#003D73"/>
<path d="M29 20H7C6.448 20 6 19.552 6 19C6 18.448 6.448 18 7 18H29C29.552 18 30 18.448 30 19C30 19.552 29.552 20 29 20Z" fill="#003D73"/>
<path d="M29 26H7C6.448 26 6 25.552 6 25C6 24.448 6.448 24 7 24H29C29.552 24 30 24.448 30 25C30 25.552 29.552 26 29 26Z" fill="#003D73"/>
<path d="M29 32H7C6.448 32 6 31.552 6 31C6 30.448 6.448 30 7 30H29C29.552 30 30 30.448 30 31C30 31.552 29.552 32 29 32Z" fill="#003D73"/>
<path d="M29 38H7C6.448 38 6 37.552 6 37C6 36.448 6.448 36 7 36H29C29.552 36 30 36.448 30 37C30 37.552 29.552 38 29 38Z" fill="#003D73"/>
</svg>
