<svg width="104" height="46" viewBox="0 0 104 46" fill="none" xmlns="http://www.w3.org/2000/svg">
<path d="M8.456 37.792H27.8V40H0.44V37.792H6.008V24.064H0.44V22.336H6.008V17.488C6.008 14 7.096 11.248 9.272 9.232C11.448 7.184 14.584 6.16 18.68 6.16C22.68 6.16 25.912 7.072 28.376 8.896L27.368 10.912C25.128 9.248 22.184 8.416 18.536 8.416C15.176 8.416 12.648 9.216 10.952 10.816C9.288 12.384 8.456 14.64 8.456 17.584V22.336H22.184V24.064H8.456V37.792ZM60.3028 31.36C60.3028 32.928 59.8868 34.368 59.0547 35.68C58.2548 36.96 57.0228 38.016 55.3587 38.848C53.6948 39.68 51.6308 40.144 49.1667 40.24V45.76H47.3907V40.24C45.0547 40.144 42.8467 39.68 40.7667 38.848C38.7187 38.016 37.1187 36.96 35.9667 35.68L37.0707 33.856C38.1907 35.008 39.6787 35.984 41.5347 36.784C43.3907 37.552 45.3427 37.984 47.3907 38.08V24.16C45.1827 23.616 43.3587 23.04 41.9187 22.432C40.4787 21.824 39.2787 20.928 38.3187 19.744C37.3587 18.56 36.8787 17.008 36.8787 15.088C36.8787 12.688 37.7587 10.656 39.5187 8.992C41.3107 7.328 43.9347 6.4 47.3907 6.208V0.639997H49.1667V6.16C50.9907 6.224 52.7508 6.528 54.4468 7.072C56.1747 7.584 57.6628 8.288 58.9108 9.184L57.9988 11.152C56.6868 10.256 55.2628 9.584 53.7268 9.136C52.1908 8.656 50.6708 8.384 49.1667 8.32V22.24C51.5987 22.848 53.5507 23.44 55.0227 24.016C56.4948 24.592 57.7428 25.472 58.7668 26.656C59.7908 27.808 60.3028 29.376 60.3028 31.36ZM39.3267 15.04C39.3267 16.992 40.0147 18.448 41.3907 19.408C42.7667 20.336 44.7667 21.136 47.3907 21.808V8.368C44.7347 8.56 42.7187 9.28 41.3427 10.528C39.9987 11.744 39.3267 13.248 39.3267 15.04ZM49.1667 38.08C52.0467 37.952 54.2067 37.28 55.6468 36.064C57.1188 34.848 57.8548 33.328 57.8548 31.504C57.8548 30.096 57.4708 28.96 56.7027 28.096C55.9348 27.2 54.9588 26.512 53.7748 26.032C52.5908 25.552 51.0547 25.072 49.1667 24.592V38.08ZM91.6648 37.984C95.8247 37.984 99.2647 36.64 101.985 33.952L103.569 35.536C102.097 37.072 100.321 38.24 98.2408 39.04C96.1928 39.84 93.9688 40.24 91.5687 40.24C88.7847 40.24 86.2087 39.696 83.8407 38.608C81.4727 37.52 79.4887 36 77.8887 34.048C76.2887 32.096 75.2007 29.856 74.6247 27.328H69.0087V25.696H74.2887C74.1927 24.864 74.1447 24.032 74.1447 23.2C74.1447 22.336 74.1927 21.504 74.2887 20.704H69.0087V19.072H74.6247C75.2007 16.544 76.2887 14.304 77.8887 12.352C79.4887 10.4 81.4727 8.88 83.8407 7.792C86.2087 6.704 88.7847 6.16 91.5687 6.16C93.9688 6.16 96.1928 6.56 98.2408 7.36C100.321 8.128 102.097 9.28 103.569 10.816L101.985 12.4C99.2967 9.744 95.8567 8.416 91.6648 8.416C89.3287 8.416 87.1687 8.864 85.1847 9.76C83.2007 10.656 81.5047 11.92 80.0967 13.552C78.7207 15.152 77.7447 16.992 77.1687 19.072H94.6887V20.704H76.8327C76.7047 21.44 76.6407 22.272 76.6407 23.2C76.6407 24.128 76.7047 24.96 76.8327 25.696H94.6887V27.328H77.1687C77.7447 29.408 78.7207 31.264 80.0967 32.896C81.5047 34.496 83.2007 35.744 85.1847 36.64C87.1687 37.536 89.3287 37.984 91.6648 37.984Z" fill="#003D73"/>
</svg>
