<svg viewBox="0 0 105 46" fill="none" xmlns="http://www.w3.org/2000/svg">
<path d="M9.368 36.928H28.184V40H0.44V36.928H5.864V24.4H0.44V22H5.864V17.968C5.864 14.32 7.016 11.44 9.32 9.328C11.624 7.184 14.92 6.112 19.208 6.112C23.144 6.112 26.344 6.96 28.808 8.656L27.512 11.584C25.4 10.048 22.536 9.28 18.92 9.28C15.752 9.28 13.368 10.032 11.768 11.536C10.168 13.008 9.368 15.152 9.368 17.968V22H22.664V24.4H9.368V36.928ZM61.1578 31.12C61.1578 33.584 60.2137 35.68 58.3257 37.408C56.4377 39.104 53.6698 40.048 50.0218 40.24V45.76H47.6217V40.288C45.2857 40.16 43.0777 39.712 40.9977 38.944C38.9497 38.144 37.3337 37.136 36.1497 35.92L37.5417 33.184C38.6617 34.272 40.1177 35.184 41.9097 35.92C43.7337 36.656 45.6377 37.088 47.6217 37.216V24.592C45.4137 24.048 43.5737 23.472 42.1017 22.864C40.6297 22.224 39.3977 21.312 38.4057 20.128C37.4457 18.912 36.9657 17.312 36.9657 15.328C36.9657 12.864 37.8617 10.8 39.6537 9.136C41.4457 7.44 44.1017 6.448 47.6217 6.16V0.639997H50.0218V6.112C51.8457 6.176 53.6057 6.48 55.3017 7.024C57.0297 7.536 58.5177 8.224 59.7658 9.088L58.5657 11.92C57.2537 11.088 55.8618 10.432 54.3898 9.952C52.9177 9.472 51.4618 9.2 50.0218 9.136V21.856C52.3898 22.432 54.3258 23.024 55.8298 23.632C57.3337 24.208 58.5977 25.104 59.6217 26.32C60.6458 27.536 61.1578 29.136 61.1578 31.12ZM40.4697 15.232C40.4697 16.896 41.0777 18.16 42.2937 19.024C43.5417 19.888 45.3177 20.624 47.6217 21.232V9.232C45.2537 9.424 43.4617 10.08 42.2457 11.2C41.0617 12.288 40.4697 13.632 40.4697 15.232ZM50.0218 37.216C52.5498 37.024 54.4538 36.4 55.7337 35.344C57.0138 34.288 57.6538 32.944 57.6538 31.312C57.6538 29.584 56.9978 28.288 55.6858 27.424C54.3738 26.56 52.4858 25.824 50.0218 25.216V37.216ZM92.465 37.12C96.465 37.12 99.761 35.776 102.353 33.088L104.657 35.344C103.153 36.976 101.345 38.208 99.233 39.04C97.121 39.872 94.801 40.288 92.273 40.288C89.489 40.288 86.913 39.76 84.545 38.704C82.177 37.616 80.177 36.112 78.545 34.192C76.945 32.272 75.841 30.064 75.233 27.568H69.665V25.456H74.849C74.753 24.72 74.705 23.968 74.705 23.2C74.705 22.4 74.753 21.648 74.849 20.944H69.665V18.832H75.233C75.841 16.336 76.945 14.128 78.545 12.208C80.177 10.288 82.177 8.8 84.545 7.744C86.913 6.656 89.489 6.112 92.273 6.112C94.801 6.112 97.121 6.528 99.233 7.36C101.345 8.192 103.153 9.408 104.657 11.008L102.353 13.264C99.729 10.608 96.433 9.28 92.465 9.28C89.201 9.28 86.337 10.16 83.873 11.92C81.441 13.68 79.793 15.984 78.929 18.832H95.393V20.944H78.401C78.305 21.648 78.257 22.4 78.257 23.2C78.257 23.968 78.305 24.72 78.401 25.456H95.393V27.568H78.929C79.793 30.416 81.441 32.72 83.873 34.48C86.337 36.24 89.201 37.12 92.465 37.12Z" fill="#003D73"/>
</svg>
