<svg viewBox="0 0 360 360" fill="none" xmlns="http://www.w3.org/2000/svg">
<path d="M321.172 155.62L350.596 180L321.172 204.38L317.404 207.502L319.704 211.82L337.564 245.358L301.275 256.253L296.531 257.677L297.031 262.605L300.874 300.552L261.89 298.013L257.105 297.701L255.746 302.3L245.33 337.549L211.82 319.704L207.502 317.404L204.38 321.172L180 350.596L155.62 321.172L152.498 317.404L148.18 319.704L114.572 337.601L103.228 301.214L101.788 296.596L96.9694 297.023L59.1515 300.381L62.9688 263.111L63.4685 258.232L58.7859 256.772L22.3993 245.428L40.2959 211.82L42.5957 207.502L38.8281 204.38L9.40413 180L38.8281 155.62L42.5957 152.498L40.2959 148.18L22.4361 114.642L58.7253 103.747L63.4685 102.323L62.9695 97.3954L59.1332 59.5199L98.5502 62.4831L103.451 62.8515L104.777 58.1198L114.764 22.5011L148.18 40.2959L152.498 42.5957L155.62 38.8281L180.067 9.32379L204.435 37.8937L207.502 41.489L211.715 39.3504L245.317 22.2971L256.253 58.7253L257.658 63.4043L262.525 62.977L300.858 59.6114L297.031 97.3954L296.531 102.323L301.275 103.747L337.564 114.642L319.704 148.18L317.404 152.498L321.172 155.62Z" fill="var(--bg)" stroke="var(--primary)" stroke-width="12"/>
<circle cx="141" cy="140" r="26" fill="var(--bg)" stroke="var(--primary)" stroke-width="12"/>
<line x1="136.757" y1="223.757" x2="224.439" y2="136.076" stroke="var(--primary)" stroke-width="12"/>
<circle cx="220" cy="219" r="26" fill="var(--bg)" stroke="var(--primary)" stroke-width="12"/>
</svg>
