<svg viewBox="0 0 361 229" fill="none" xmlns="http://www.w3.org/2000/svg">
<circle cx="288.5" cy="66.5" r="35.5" fill="var(--bg)" stroke="var(--primary)" stroke-width="12"/>
<path d="M224.223 168C227.009 130.626 255.599 102 289.5 102C323.401 102 351.991 130.626 354.777 168H224.223Z" fill="var(--bg)" stroke="var(--primary)" stroke-width="12"/>
<path d="M6.22256 168C9.00905 130.626 37.5989 102 71.5 102C105.401 102 133.991 130.626 136.777 168H6.22256Z" fill="var(--bg)" stroke="var(--primary)" stroke-width="12"/>
<path d="M108 66.5C108 86.1061 92.1061 102 72.5 102C52.8939 102 37 86.1061 37 66.5C37 46.8939 52.8939 31 72.5 31C92.1061 31 108 46.8939 108 66.5Z" fill="var(--bg)" stroke="var(--primary)" stroke-width="12"/>
<path d="M226.095 51.9742C226.095 77.3591 205.493 97.9484 180.067 97.9484C154.64 97.9484 134.038 77.3591 134.038 51.9742C134.038 26.5893 154.64 6 180.067 6C205.493 6 226.095 26.5893 226.095 51.9742Z" fill="var(--bg)" stroke="var(--primary)" stroke-width="12"/>
<path d="M93.7254 198.057C91.5259 191.246 91.3326 181.637 93.7062 170.743C96.0609 159.937 100.854 148.296 108.114 137.597C122.583 116.273 146.621 98.9539 180.566 98.9539C214.489 98.9539 238.111 116.261 252.257 137.565C266.656 159.251 270.649 184.13 266.377 198.152C262.113 212.148 253.105 218.139 244.47 220.851C236.784 223.265 229.625 223.044 225.782 222.925C225.112 222.904 224.543 222.886 224.09 222.886H136.042C135.43 222.886 134.712 222.907 133.901 222.93C129.606 223.051 122.714 223.246 115.368 220.882C107.083 218.215 98.311 212.257 93.7254 198.057Z" fill="var(--bg)" stroke="var(--primary)" stroke-width="12"/>
</svg>
