<svg viewBox="0 0 64 42" fill="none" xmlns="http://www.w3.org/2000/svg">
<path d="M55.351 18.5624C57.2252 17.2454 58.4662 15.0547 58.4662 12.5853C58.4662 8.54575 55.1991 5.27864 51.1595 5.27864C47.1199 5.27864 43.8528 8.54575 43.8528 12.5853C43.8528 15.0547 45.0811 17.2454 46.9679 18.5624C45.3597 19.1196 43.8908 19.9807 42.6498 21.095C40.9402 19.6387 38.9268 18.5244 36.7234 17.8659C39.3953 16.245 41.1935 13.2945 41.1935 9.93871C41.1935 4.82276 37.0526 0.681885 31.9367 0.681885C26.8207 0.681885 22.6799 4.83543 22.6799 9.93871C22.6799 13.2945 24.4654 16.245 27.15 17.8659C24.9719 18.5244 22.9838 19.6261 21.2869 21.057C20.0459 19.968 18.6023 19.1196 17.0194 18.575C18.8936 17.2581 20.1345 15.0673 20.1345 12.598C20.1345 8.55842 16.8674 5.2913 12.8279 5.2913C8.78829 5.2913 5.52117 8.55842 5.52117 12.598C5.52117 15.0673 6.74951 17.2581 8.63633 18.575C3.60902 20.3099 0 25.0839 0 30.6938V31.5295C0 31.5549 0.0253265 31.5802 0.050653 31.5802H15.5378C15.4492 32.2767 15.3985 32.9985 15.3985 33.7203V34.5814C15.3985 38.3044 18.4123 41.3182 22.1353 41.3182H41.7634C45.4863 41.3182 48.5002 38.3044 48.5002 34.5814V33.7203C48.5002 32.9985 48.4495 32.2767 48.3609 31.5802H63.9494C63.9747 31.5802 64 31.5549 64 31.5295V30.6938C63.9747 25.0713 60.3783 20.2972 55.351 18.5624ZM45.8789 12.5727C45.8789 9.66012 48.2469 7.29209 51.1595 7.29209C54.072 7.29209 56.4401 9.66012 56.4401 12.5727C56.4401 15.4472 54.1227 17.7899 51.2608 17.8532C51.2228 17.8532 51.1975 17.8532 51.1595 17.8532C51.1215 17.8532 51.0962 17.8532 51.0582 17.8532C48.1836 17.8026 45.8789 15.4599 45.8789 12.5727ZM24.6806 9.93871C24.6806 5.94979 27.9224 2.708 31.9114 2.708C35.9003 2.708 39.1421 5.94979 39.1421 9.93871C39.1421 13.7883 36.1156 16.9415 32.3292 17.1568C32.1899 17.1568 32.0507 17.1568 31.9114 17.1568C31.7721 17.1568 31.6328 17.1568 31.4935 17.1568C27.7072 16.9415 24.6806 13.7883 24.6806 9.93871ZM7.5093 12.5727C7.5093 9.66012 9.87733 7.29209 12.7899 7.29209C15.7024 7.29209 18.0704 9.66012 18.0704 12.5727C18.0704 15.4472 15.7531 17.7899 12.8912 17.8532C12.8532 17.8532 12.8279 17.8532 12.7899 17.8532C12.7519 17.8532 12.7266 17.8532 12.6886 17.8532C9.82667 17.8026 7.5093 15.4599 7.5093 12.5727ZM15.8924 29.5414H2.05144C2.62129 24.1469 7.18006 19.9173 12.7139 19.8794C12.7392 19.8794 12.7645 19.8794 12.7899 19.8794C12.8152 19.8794 12.8405 19.8794 12.8658 19.8794C15.4998 19.892 17.9058 20.8671 19.7673 22.45C17.9438 24.4255 16.5888 26.8568 15.8924 29.5414ZM46.4488 34.5814C46.4488 37.1773 44.334 39.2921 41.738 39.2921H22.11C19.514 39.2921 17.3993 37.1773 17.3993 34.5814V33.7203C17.3993 25.8564 23.6803 19.4235 31.4935 19.1955C31.6328 19.2082 31.7847 19.2082 31.924 19.2082C32.0633 19.2082 32.2153 19.2082 32.3546 19.1955C40.1678 19.4235 46.4488 25.8564 46.4488 33.7203V34.5814ZM47.9557 29.5414C47.2592 26.8695 45.9296 24.4761 44.1187 22.5006C45.9929 20.8797 48.4242 19.9047 51.0835 19.8794C51.1088 19.8794 51.1342 19.8794 51.1595 19.8794C51.1848 19.8794 51.2101 19.8794 51.2355 19.8794C56.7693 19.9173 61.3281 24.1469 61.8979 29.5414H47.9557Z" fill="#003D73"/>
</svg>
