<svg viewBox="0 0 512 512" xmlns="http://www.w3.org/2000/svg">
<path d="M359.472 0H152.528C68.4235 0 0 68.4235 0 152.528V359.472C0 443.576 68.4235 512 152.528 512H359.472C443.576 512 512 443.576 512 359.472V152.528C511.999 68.4235 443.576 0 359.472 0ZM460.493 359.472C460.493 415.264 415.264 460.493 359.472 460.493H152.528C96.736 460.493 51.5072 415.264 51.5072 359.472V152.528C51.5072 96.7351 96.736 51.5072 152.528 51.5072H359.472C415.264 51.5072 460.493 96.7351 460.493 152.528V359.472Z" />
<path d="M256 123.579C182.982 123.579 123.578 182.983 123.578 255.999C123.578 329.015 182.982 388.42 256 388.42C329.017 388.42 388.421 329.016 388.421 255.999C388.421 182.982 329.017 123.579 256 123.579ZM256 336.914C211.311 336.914 175.085 300.688 175.085 256C175.085 211.312 211.312 175.086 256 175.086C300.688 175.086 336.914 211.312 336.914 256C336.914 300.687 300.687 336.914 256 336.914Z" />
<path d="M388.678 156.304C406.203 156.304 420.409 142.097 420.409 124.573C420.409 107.048 406.203 92.8419 388.678 92.8419C371.154 92.8419 356.947 107.048 356.947 124.573C356.947 142.097 371.154 156.304 388.678 156.304Z" />
</svg>
