<svg width="367" height="212" viewBox="0 0 367 212" fill="none" xmlns="http://www.w3.org/2000/svg">
<rect x="-64.0088" y="100.644" width="422.992" height="128" transform="rotate(-30 -64.0088 100.644)" fill="#51A749"/>
<path d="M98.2941 98.6561C102.659 96.1361 105.342 92.287 106.343 87.1087L116.221 89.3867C115.607 93.1224 114.145 96.5434 111.837 99.6496C109.571 102.732 106.546 105.365 102.763 107.549C99.1468 109.637 95.4077 110.937 91.546 111.448C87.7259 111.935 84.051 111.618 80.5214 110.497C76.9918 109.375 73.849 107.532 71.0929 104.966L64.0469 109.034L61.0229 103.796L67.1336 100.268C66.876 99.9183 66.5312 99.3691 66.0992 98.6208C65.6672 97.8726 65.364 97.2994 65.1896 96.9013L59.0789 100.429L56.0549 95.1916L63.1009 91.1236C62.257 87.4539 62.2318 83.8103 63.0254 80.1929C63.819 76.5754 65.3819 73.2344 67.714 70.1697C70.0877 67.0811 73.0828 64.4927 76.6993 62.4047C80.4821 60.2207 84.2748 58.9179 88.0773 58.4961C91.9215 58.0503 95.6028 58.4745 99.1212 59.7686L96.1548 69.4626C91.1522 67.8059 86.4893 68.2256 82.1661 70.7216C79.4226 72.3056 77.33 74.3451 75.8884 76.8402C74.4468 79.3353 73.78 82.0204 73.8881 84.8956L89.6636 75.7876L92.6876 81.0253L75.3532 91.0333C75.5277 91.4314 75.8309 92.0046 76.2629 92.7528C76.6949 93.5011 77.0397 94.0503 77.2972 94.4004L94.6316 84.3924L97.6556 89.6301L81.8801 98.7381C84.316 100.269 86.9748 101.034 89.8564 101.033C92.738 101.033 95.5506 100.24 98.2941 98.6561ZM145.461 82.8976C141.844 84.9856 138.106 85.9519 134.248 85.7964C130.389 85.6409 126.677 84.3477 123.112 81.9166C119.564 79.4199 116.434 75.8229 113.722 71.1256C111.01 66.4282 109.472 61.94 109.108 57.6609C108.761 53.3162 109.485 49.4342 111.28 46.0147C113.074 42.5952 115.78 39.8415 119.397 37.7535C123.013 35.6655 126.751 34.6992 130.609 34.8547C134.468 35.0102 138.171 36.3362 141.719 38.8329C145.284 41.264 148.423 44.8282 151.135 49.5256C153.847 54.2229 155.376 58.7439 155.723 63.0885C156.087 67.3677 155.372 71.2169 153.577 74.6364C151.783 78.0559 149.077 80.8096 145.461 82.8976ZM140.529 74.3552C143.189 72.8192 144.607 70.476 144.784 67.3257C145.002 64.1514 143.731 60.174 140.971 55.3936C138.211 50.6131 135.402 47.5237 132.544 46.1254C129.727 44.7031 126.989 44.7599 124.329 46.2959C121.71 47.8079 120.291 50.1511 120.073 53.3254C119.897 56.4757 121.188 60.4411 123.948 65.2216C126.708 70.002 129.497 73.1034 132.313 74.5257C135.171 75.924 137.91 75.8672 140.529 74.3552Z" fill="white"/>
</svg>
