<svg viewBox="0 0 108 19" fill="none" xmlns="http://www.w3.org/2000/svg">
<title>Thuisbezorgd</title>
<path d="M9.20808 0.199185C9.38047 0.069892 9.59015 0 9.80564 0C10.0211 0 10.2308 0.069892 10.4032 0.199185C11.3327 0.796741 12.1959 1.3943 13.059 2.05825C13.059 2.05825 13.2582 2.19104 13.3246 1.92546C13.2856 1.59221 13.3081 1.25465 13.391 0.929531C13.425 0.833199 13.4879 0.749674 13.571 0.690287C13.6542 0.6309 13.7536 0.598525 13.8557 0.597555C13.8557 0.597555 14.8517 0.663951 15.5156 0.730346C15.657 0.758728 15.7854 0.832398 15.8812 0.940212C15.9771 1.04803 16.0352 1.18412 16.0468 1.3279C16.0468 1.3279 16.4451 4.11649 16.5779 5.11242C16.717 5.63885 16.9918 6.1196 17.3747 6.50671C17.9731 7.31712 18.5272 8.15936 19.0345 9.02973C19.0345 9.02973 19.3665 9.76007 18.6362 9.82647C18.6362 9.82647 17.2419 9.95926 17.1091 10.0257C17.0128 10.0357 16.9242 10.083 16.8622 10.1574C16.8002 10.2318 16.7697 10.3275 16.7771 10.424C16.7771 10.424 16.7107 15.2709 16.3787 17.6611C16.3787 17.6611 16.3124 18.5906 15.7812 18.5906C15.7812 18.5906 14.3869 18.5242 14.0549 18.5242C14.0549 18.5242 13.9221 18.5242 13.9221 18.325C13.9221 18.325 14.6525 10.756 14.1877 6.90509C14.1856 6.77777 14.1469 6.65374 14.0763 6.5478C14.0057 6.44185 13.9061 6.35845 13.7893 6.30753C13.7893 6.30753 13.4574 6.17474 13.1254 6.6395C11.6911 8.63451 10.9032 11.0214 10.868 13.4782C10.8249 13.9911 10.8698 14.5075 11.0007 15.0053C11.0007 15.0053 11.1335 15.2045 11.7311 15.2709L12.4614 15.4037C12.4614 15.4037 12.5942 15.4037 12.5942 15.6028C12.5942 15.6028 12.395 17.8603 12.395 18.2586C12.405 18.3522 12.3815 18.4463 12.3286 18.5242C12.2512 18.5781 12.1567 18.6018 12.0631 18.5906H8.41134C8.33943 18.5911 8.26939 18.5678 8.21215 18.5242C8.14576 18.3914 8.01297 15.6692 8.01297 15.2709C8.01297 15.2045 8.07936 15.1381 8.14576 15.0717C8.40063 14.9138 8.61659 14.7005 8.77753 14.4476C8.93848 14.1947 9.04026 13.9087 9.07529 13.611C9.12637 13.192 9.12637 12.7684 9.07529 12.3495C9.07529 12.3495 9.20808 8.1002 9.20808 7.36985C9.20808 7.36985 9.27448 7.17067 8.9425 7.10427C8.90762 7.09216 8.87051 7.08786 8.83379 7.09166C8.79706 7.09546 8.76162 7.10728 8.72996 7.12628C8.6983 7.14527 8.6712 7.17098 8.65056 7.2016C8.62992 7.23221 8.61626 7.26698 8.61053 7.30346C8.61053 7.30346 8.41134 10.1584 8.41134 11.2208C8.41134 11.2208 8.47773 11.9511 8.01297 11.9511C8.01297 11.9511 7.5482 12.0175 7.48181 11.4199C7.48181 11.4199 7.5482 8.69775 7.6146 7.30346C7.60994 7.23455 7.58046 7.16968 7.53163 7.12085C7.4828 7.07201 7.41792 7.04254 7.34902 7.03788C7.21623 6.97148 7.01704 7.10427 7.01704 7.30346C7.01704 7.30346 6.81786 9.95926 6.81786 11.2872C6.81786 11.2872 6.88425 11.9511 6.35309 11.9511C6.35309 11.9511 5.88833 12.0175 5.88833 11.4199C5.88833 11.4199 6.02112 7.63543 6.02112 7.36985C6.02865 7.29086 6.00514 7.21203 5.95557 7.15007C5.906 7.08811 5.83426 7.04787 5.75554 7.03788H5.68914C5.55635 7.03788 5.35717 7.10427 5.35717 7.30346V7.36985C5.35717 7.36985 5.1447 11.8847 5.1447 13.2126C5.1488 13.589 5.24102 13.9593 5.41397 14.2936C5.58692 14.628 5.83579 14.9172 6.14063 15.1381C6.17791 15.1572 6.20969 15.1855 6.23293 15.2204C6.25617 15.2553 6.27011 15.2955 6.27342 15.3373C6.27342 15.3373 6.40621 17.7275 6.4726 18.5242C6.4726 18.5242 6.539 18.7234 6.33981 18.7234L3.8168 18.5906C3.8168 18.5906 3.41843 18.657 3.28564 18.1258C2.97639 15.5925 2.82118 13.0426 2.82088 10.4904C2.82832 10.3939 2.7978 10.2982 2.7358 10.2238C2.6738 10.1494 2.58522 10.1021 2.4889 10.092C2.4889 10.092 1.22739 9.95926 0.895419 9.89286C0.755054 9.85681 0.634541 9.76691 0.55998 9.64264C0.485418 9.51837 0.462809 9.36973 0.497049 9.22891C0.497049 9.16252 0.563444 9.16252 0.563444 9.09612C2.72603 5.5079 5.68354 2.46408 9.20808 0.199185Z" fill="#FF8000"/>
<path d="M77.7343 9.89282C77.4221 9.61054 77.0625 9.38575 76.672 9.22887C75.8066 8.96342 74.8815 8.96342 74.0162 9.22887C73.6059 9.34418 73.2373 9.57458 72.9538 9.89282C72.6387 10.1657 72.3891 10.5061 72.2235 10.8887C71.8916 11.857 71.8916 12.9082 72.2235 13.8765C72.3654 14.2722 72.6191 14.6182 72.9538 14.8724C73.266 15.1547 73.6256 15.3795 74.0162 15.5364C74.8703 15.8684 75.8178 15.8684 76.672 15.5364C77.0822 15.4211 77.4509 15.1907 77.7343 14.8724C78.0349 14.5864 78.2822 14.2492 78.4646 13.8765C78.7965 12.9082 78.7965 11.857 78.4646 10.8887C78.2886 10.5122 78.0405 10.1739 77.7343 9.89282ZM76.4728 13.7437C76.1673 14.0313 75.7636 14.1915 75.3441 14.1915C74.9245 14.1915 74.5208 14.0313 74.2153 13.7437C73.9364 13.3588 73.796 12.8908 73.817 12.4158C73.8063 11.9422 73.9457 11.4774 74.2153 11.0879C74.5208 10.8003 74.9245 10.6402 75.3441 10.6402C75.7636 10.6402 76.1673 10.8003 76.4728 11.0879C76.7517 11.4729 76.8921 11.9409 76.8711 12.4158C76.9017 12.8919 76.7603 13.3631 76.4728 13.7437Z" fill="#FF8000"/>
<path d="M30.0623 6.77231H23.5556C23.4867 6.77697 23.4218 6.80644 23.373 6.85528C23.3242 6.90411 23.2947 6.96898 23.29 7.03789V8.233C23.2947 8.3019 23.3242 8.36678 23.373 8.41561C23.4218 8.46444 23.4867 8.49392 23.5556 8.49858H25.6803C25.7145 8.50157 25.7465 8.51652 25.7708 8.5408C25.7951 8.56509 25.8101 8.59715 25.8131 8.63137V15.4037C25.8177 15.4726 25.8472 15.5374 25.896 15.5863C25.9449 15.6351 26.0097 15.6646 26.0786 15.6692H27.5393C27.6082 15.6646 27.6731 15.6351 27.7219 15.5863C27.7708 15.5374 27.8002 15.4726 27.8049 15.4037V8.63137C27.8079 8.59715 27.8228 8.56509 27.8471 8.5408C27.8714 8.51652 27.9035 8.50157 27.9377 8.49858H30.0623C30.1312 8.49392 30.1961 8.46444 30.2449 8.41561C30.2938 8.36678 30.3233 8.3019 30.3279 8.233V7.03789C30.3309 7.00225 30.3262 6.96637 30.3139 6.93278C30.3016 6.89918 30.2821 6.86867 30.2568 6.84338C30.2316 6.81808 30.201 6.79862 30.1674 6.78634C30.1338 6.77407 30.098 6.76928 30.0623 6.77231Z" fill="#FF8000"/>
<path d="M65.0527 9.89283C64.8012 9.59944 64.4822 9.37159 64.1232 9.22888C63.7382 9.09828 63.3346 9.03101 62.928 9.0297C62.4777 9.02585 62.0296 9.09307 61.6001 9.22888C61.1899 9.34419 60.8212 9.57459 60.5378 9.89283C60.2227 10.1657 59.973 10.5061 59.8075 10.8888C59.4756 11.857 59.4756 12.9083 59.8075 13.8765C59.9494 14.2722 60.2031 14.6182 60.5378 14.8725C60.85 15.1547 61.2096 15.3795 61.6001 15.5364C62.0296 15.6722 62.4777 15.7394 62.928 15.7356C63.4319 15.7208 63.928 15.608 64.3887 15.4036C64.7383 15.244 65.0539 15.0186 65.3183 14.7397C65.3508 14.6783 65.3678 14.6099 65.3678 14.5405C65.3678 14.471 65.3508 14.4026 65.3183 14.3413L64.4551 13.6774V13.8101C64.3223 13.7437 64.1896 13.7437 64.1232 13.8765C64.0075 14.0063 63.8732 14.1181 63.7248 14.2085C63.4561 14.3593 63.1488 14.4272 62.8415 14.4035C62.5343 14.3799 62.241 14.2658 61.9985 14.0757C61.7135 13.7941 61.5471 13.4139 61.5338 13.0134C61.5367 12.9792 61.5517 12.9471 61.576 12.9228C61.6003 12.8986 61.6323 12.8836 61.6665 12.8806H65.6502C65.7191 12.8759 65.784 12.8465 65.8329 12.7976C65.8817 12.7488 65.9112 12.6839 65.9158 12.615V12.3494C65.9197 11.8991 65.8525 11.451 65.7166 11.0215C65.5503 10.6156 65.3267 10.2355 65.0527 9.89283ZM63.7912 11.5527H61.5802C61.546 11.5497 61.514 11.5348 61.4897 11.5105C61.4654 11.4862 61.4504 11.4541 61.4474 11.4199C61.4474 11.3535 61.5138 11.2207 61.5138 11.1543C61.5636 11.0176 61.6569 10.9009 61.7794 10.8224C61.9141 10.7022 62.0719 10.6109 62.2432 10.5538C62.4144 10.4967 62.5955 10.4751 62.7753 10.4904C63.0923 10.5002 63.3966 10.6172 63.6385 10.8224C63.8129 11.0056 63.9285 11.2368 63.9704 11.4863C63.9041 11.4863 63.8377 11.5527 63.7713 11.5527" fill="#FF8000"/>
<path d="M58.3467 10.0256C58.1055 9.73198 57.8131 9.48452 57.4836 9.2953C57.1144 9.10623 56.7029 9.0148 56.2884 9.02972C55.9036 9.03123 55.5218 9.0986 55.1597 9.2289C54.9244 9.29729 54.7158 9.43636 54.5622 9.62728H54.4958C54.4782 9.62728 54.4613 9.62028 54.4488 9.60783C54.4364 9.59538 54.4294 9.57849 54.4294 9.56088V6.37392C54.4247 6.30502 54.3952 6.24014 54.3464 6.19131C54.2976 6.14248 54.2327 6.113 54.1638 6.10834H52.8359C52.767 6.113 52.7021 6.14248 52.6533 6.19131C52.6044 6.24014 52.575 6.30502 52.5703 6.37392V15.4036C52.575 15.4725 52.6044 15.5374 52.6533 15.5863C52.7021 15.6351 52.767 15.6646 52.8359 15.6692H54.031C54.0999 15.6646 54.1648 15.6351 54.2136 15.5863C54.2624 15.5374 54.2919 15.4725 54.2966 15.4036V15.1381C54.2966 15.1205 54.3036 15.1036 54.316 15.0911C54.3285 15.0787 54.3454 15.0717 54.363 15.0717H54.4294L54.5622 15.2045C54.695 15.3372 54.8277 15.4036 54.9605 15.5364C55.1333 15.6138 55.3107 15.6803 55.4917 15.7356C55.6859 15.7904 55.8878 15.8128 56.0893 15.802C56.5175 15.8008 56.943 15.7336 57.3508 15.6028C57.7003 15.4432 58.0159 15.2178 58.2803 14.9389C58.5548 14.6583 58.7595 14.3172 58.8778 13.943C59.1436 13.0098 59.1436 12.0211 58.8778 11.088C58.797 10.6934 58.6138 10.3271 58.3467 10.0256ZM56.8196 13.7438C56.5141 14.0314 56.1104 14.1915 55.6909 14.1915C55.2713 14.1915 54.8676 14.0314 54.5622 13.7438C54.2832 13.3588 54.1428 12.8908 54.1638 12.4159C54.1423 11.9614 54.2835 11.5141 54.5622 11.1544C54.8676 10.8668 55.2713 10.7066 55.6909 10.7066C56.1104 10.7066 56.5141 10.8668 56.8196 11.1544C57.0983 11.5141 57.2395 11.9614 57.218 12.4159C57.239 12.8908 57.0985 13.3588 56.8196 13.7438Z" fill="#FF8000"/>
<path d="M97.4327 6.17474H96.1048C96.0358 6.1794 95.971 6.20888 95.9221 6.25771C95.8733 6.30655 95.8438 6.37142 95.8392 6.44032V9.62729C95.8392 9.64489 95.8322 9.66178 95.8197 9.67423C95.8073 9.68669 95.7904 9.69368 95.7728 9.69368H95.7064L95.1088 9.29531C94.7482 9.15935 94.3655 9.0918 93.9801 9.09613C93.5663 9.08837 93.1566 9.17941 92.785 9.36171C92.4412 9.52992 92.1447 9.78088 91.9219 10.0921C91.6799 10.4098 91.4998 10.7702 91.3907 11.1544C91.125 12.0875 91.125 13.0762 91.3907 14.0094C91.509 14.3836 91.7137 14.7248 91.9883 15.0053C92.2526 15.2842 92.5682 15.5096 92.9178 15.6692C93.3158 15.8373 93.7489 15.9056 94.1793 15.8684C94.3808 15.8792 94.5827 15.8568 94.7769 15.802C94.9579 15.7467 95.1353 15.6802 95.308 15.6028C95.4565 15.5125 95.5907 15.4006 95.7064 15.2709L95.8392 15.1381C95.8478 15.1292 95.8582 15.1222 95.8696 15.1174C95.881 15.1126 95.8932 15.1102 95.9056 15.1102C95.9179 15.1102 95.9302 15.1126 95.9416 15.1174C95.953 15.1222 95.9633 15.1292 95.972 15.1381V15.4037C95.9766 15.4726 96.0061 15.5374 96.0549 15.5863C96.1038 15.6351 96.1686 15.6646 96.2375 15.6692H97.4327C97.5016 15.6646 97.5664 15.6351 97.6153 15.5863C97.6641 15.5374 97.6936 15.4726 97.6982 15.4037V6.44032C97.6936 6.37142 97.6641 6.30655 97.6153 6.25771C97.5664 6.20888 97.5016 6.1794 97.4327 6.17474ZM95.5736 13.7438C95.2681 14.0314 94.8644 14.1915 94.4449 14.1915C94.0253 14.1915 93.6216 14.0314 93.3162 13.7438C93.0372 13.3588 92.8968 12.8908 92.9178 12.4159C92.8963 11.9614 93.0375 11.5141 93.3162 11.1544C93.6216 10.8668 94.0253 10.7066 94.4449 10.7066C94.8644 10.7066 95.2681 10.8668 95.5736 11.1544C95.8522 11.5141 95.9935 11.9614 95.972 12.4159C95.9929 12.8908 95.8525 13.3588 95.5736 13.7438Z" fill="#FF8000"/>
<path d="M45.0672 6.17474C44.844 6.17474 44.6257 6.24094 44.4401 6.36497C44.2545 6.48899 44.1098 6.66527 44.0244 6.87152C43.939 7.07776 43.9166 7.30471 43.9602 7.52366C44.0037 7.74261 44.1112 7.94373 44.2691 8.10158C44.4269 8.25944 44.628 8.36693 44.847 8.41049C45.0659 8.45404 45.2929 8.43169 45.4991 8.34626C45.7054 8.26083 45.8817 8.11616 46.0057 7.93054C46.1297 7.74492 46.1959 7.5267 46.1959 7.30346C46.1853 7.00646 46.0673 6.72339 45.8639 6.50672C45.6406 6.31378 45.3614 6.19743 45.0672 6.17474Z" fill="#FF8000"/>
<path d="M45.6452 9.22888H44.3173C44.2484 9.23354 44.1836 9.26302 44.1347 9.31185C44.0859 9.36068 44.0564 9.42556 44.0518 9.49446V15.47C44.0564 15.5389 44.0859 15.6038 44.1347 15.6526C44.1836 15.7015 44.2484 15.7309 44.3173 15.7356H45.6452C45.7141 15.7309 45.779 15.7015 45.8279 15.6526C45.8767 15.6038 45.9062 15.5389 45.9108 15.47V9.49446C45.9772 9.36167 45.8444 9.22888 45.6452 9.22888Z" fill="#FF8000"/>
<path d="M90.1298 9.22886H88.9347C88.8658 9.23352 88.8009 9.263 88.7521 9.31183C88.7032 9.36066 88.6738 9.42554 88.6691 9.49444V9.76002C88.6691 9.82642 88.6027 9.82642 88.5363 9.82642H88.4699L88.3371 9.69363C88.1939 9.56746 88.0382 9.45623 87.8724 9.36165C87.6843 9.26575 87.4828 9.19861 87.2748 9.16247C87.0355 9.1075 86.7898 9.08516 86.5445 9.09607C86.1306 9.08831 85.7209 9.17936 85.3493 9.36165C85.0056 9.52986 84.709 9.78082 84.4862 10.092C84.2584 10.3943 84.0792 10.7303 83.955 11.0879C83.6895 11.9985 83.6895 12.966 83.955 13.8765C84.0734 14.2507 84.2781 14.5919 84.5526 14.8724C84.817 15.1514 85.1326 15.3768 85.4821 15.5364C85.8802 15.7044 86.3132 15.7728 86.7436 15.7356C87.0638 15.7334 87.3802 15.6656 87.6732 15.5364C87.9005 15.4517 88.1051 15.3153 88.2707 15.138L88.3371 15.0716H88.4035C88.4211 15.0716 88.438 15.0786 88.4505 15.0911C88.4629 15.1035 88.4699 15.1204 88.4699 15.138V15.47C88.4806 15.8625 88.3376 16.2436 88.0715 16.5323C87.7169 16.8205 87.2659 16.9629 86.81 16.9307C86.4468 16.929 86.0869 16.8615 85.7477 16.7315C85.4821 16.5987 85.2829 16.4659 85.0174 16.3331C84.9539 16.2952 84.879 16.281 84.806 16.2932C84.733 16.3054 84.6668 16.343 84.619 16.3995L83.8887 17.5282C83.8223 17.661 83.8223 17.8602 83.955 17.9266C84.3294 18.1979 84.7609 18.3796 85.2166 18.4578C85.7375 18.5893 86.2727 18.6562 86.81 18.657C87.2938 18.706 87.7824 18.6481 88.2413 18.4875C88.7002 18.3269 89.1182 18.0674 89.4658 17.7274C90.0928 16.9908 90.403 16.0361 90.329 15.0716V9.36165C90.3954 9.29526 90.2626 9.22886 90.1298 9.22886ZM88.5363 13.1462C88.4651 13.3258 88.3511 13.4853 88.2043 13.6109C88.0662 13.7433 87.9096 13.8552 87.7396 13.9429C87.3522 14.0754 86.9318 14.0754 86.5445 13.9429C86.3649 13.8717 86.2053 13.7577 86.0797 13.6109C85.9329 13.4853 85.8189 13.3258 85.7477 13.1462C85.6656 12.9111 85.6208 12.6647 85.6149 12.4158C85.594 12.1434 85.6396 11.87 85.7477 11.6191C85.8189 11.4395 85.9329 11.28 86.0797 11.1543C86.2053 11.0075 86.3649 10.8936 86.5445 10.8223C86.9317 10.6893 87.3523 10.6893 87.7396 10.8223C87.9192 10.8936 88.0787 11.0075 88.2043 11.1543C88.3511 11.28 88.4651 11.4395 88.5363 11.6191C88.6128 11.8783 88.6574 12.1458 88.6691 12.4158C88.6952 12.6669 88.6491 12.9203 88.5363 13.1462Z" fill="#FF8000"/>
<path d="M36.2374 9.89282C36.0842 9.6289 35.852 9.41985 35.5734 9.29526C35.1898 9.15934 34.7853 9.09192 34.3783 9.09608C34.155 9.08832 33.9317 9.11065 33.7144 9.16247C33.5152 9.22887 33.3824 9.29526 33.1832 9.36166C33.042 9.43679 32.9264 9.55239 32.8512 9.69363V9.76003H32.7184V6.50667C32.7138 6.43777 32.6843 6.37289 32.6355 6.32406C32.5866 6.27523 32.5218 6.24575 32.4529 6.24109H31.125C31.0561 6.24575 30.9912 6.27523 30.9423 6.32406C30.8935 6.37289 30.864 6.43777 30.8594 6.50667V15.4036C30.864 15.4725 30.8935 15.5374 30.9423 15.5862C30.9912 15.635 31.0561 15.6645 31.125 15.6692H32.4529C32.5218 15.6645 32.5866 15.635 32.6355 15.5862C32.6843 15.5374 32.7138 15.4725 32.7184 15.4036V11.6855C32.7225 11.5218 32.7682 11.3618 32.8512 11.2207C32.9264 11.0795 33.042 10.9639 33.1832 10.8887C33.3741 10.8131 33.5758 10.7683 33.7808 10.756C33.9616 10.7461 34.1411 10.7917 34.2953 10.8866C34.4496 10.9815 34.5712 11.1213 34.6439 11.2871C34.7103 11.4199 34.7103 11.6191 34.7767 11.8183V15.4036C34.7813 15.4725 34.8108 15.5374 34.8597 15.5862C34.9085 15.635 34.9734 15.6645 35.0423 15.6692H36.3702C36.4391 15.6645 36.5039 15.635 36.5528 15.5862C36.6016 15.5374 36.6311 15.4725 36.6357 15.4036V11.9511C36.6487 11.5736 36.6265 11.1957 36.5693 10.8223C36.5295 10.4916 36.416 10.174 36.2374 9.89282Z" fill="#FF8000"/>
<path d="M83.3773 9.02972H83.0453C82.6731 9.0147 82.3044 9.10688 81.983 9.2953C81.7738 9.43706 81.5936 9.61732 81.4518 9.82646H81.3854C81.319 9.82646 81.319 9.82646 81.319 9.76006V9.36169C81.3144 9.29279 81.2849 9.22791 81.2361 9.17908C81.1872 9.13025 81.1223 9.10077 81.0534 9.09611H79.7255C79.6566 9.10077 79.5918 9.13025 79.5429 9.17908C79.4941 9.22791 79.4646 9.29279 79.46 9.36169V15.3372C79.4646 15.4061 79.4941 15.471 79.5429 15.5199C79.5918 15.5687 79.6566 15.5982 79.7255 15.6028H81.0534C81.1223 15.5982 81.1872 15.5687 81.2361 15.5199C81.2849 15.471 81.3144 15.4061 81.319 15.3372V12.6814C81.3105 12.3922 81.3328 12.1029 81.3854 11.8183C81.3896 11.5829 81.4585 11.3532 81.5846 11.1544C81.6875 10.9708 81.8522 10.8296 82.0494 10.756C82.2631 10.68 82.4868 10.6353 82.7133 10.6232H83.3773C83.4462 10.6185 83.511 10.5891 83.5599 10.5402C83.6087 10.4914 83.6382 10.4265 83.6429 10.3576V9.2289C83.7092 9.16251 83.5765 9.02972 83.3773 9.02972Z" fill="#FF8000"/>
<path d="M50.9566 12.1503C50.7092 12.0002 50.4406 11.8882 50.1598 11.8183L49.3631 11.6191L48.7655 11.4199C48.7045 11.3888 48.6535 11.3412 48.6183 11.2825C48.5831 11.2238 48.5651 11.1564 48.5663 11.088C48.5641 11.0103 48.5812 10.9333 48.6159 10.8638C48.6507 10.7943 48.7021 10.7344 48.7655 10.6896C48.9066 10.6065 49.0666 10.5608 49.2303 10.5568C49.5676 10.5658 49.8932 10.6821 50.1598 10.8888C50.2212 10.9213 50.2896 10.9384 50.359 10.9384C50.4285 10.9384 50.4969 10.9213 50.5582 10.8888L51.3549 10.092C51.3875 10.0307 51.4045 9.96231 51.4045 9.89286C51.4045 9.82341 51.3875 9.75502 51.3549 9.69367C51.1062 9.47536 50.811 9.31644 50.4918 9.22891C50.1068 9.09831 49.7032 9.03104 49.2967 9.02972C48.9826 9.03656 48.6706 9.08114 48.3672 9.16251C48.0726 9.22696 47.7987 9.36389 47.5704 9.56088C47.3209 9.73115 47.116 9.95885 46.9729 10.2248C46.8414 10.5404 46.7737 10.8789 46.7737 11.2208C46.7737 11.5626 46.8414 11.9011 46.9729 12.2167C47.1372 12.4479 47.3392 12.6499 47.5704 12.8142C47.8178 12.9644 48.0864 13.0763 48.3672 13.1462L49.1639 13.3454L49.7615 13.5446C49.8306 13.5836 49.8864 13.6424 49.9219 13.7133C49.9574 13.7843 49.9709 13.8643 49.9606 13.943C49.9606 14.0757 49.8942 14.2749 49.6951 14.2749C49.5009 14.3297 49.299 14.3521 49.0975 14.3413C48.8399 14.3472 48.5861 14.278 48.3672 14.1421C48.2187 14.0518 48.0845 13.9399 47.9688 13.8102C47.9074 13.7776 47.8391 13.7606 47.7696 13.7606C47.7002 13.7606 47.6318 13.7776 47.5704 13.8102L46.7737 14.7397C46.7357 14.8032 46.7216 14.8781 46.7337 14.9511C46.7459 15.024 46.7836 15.0903 46.8401 15.1381C47.1131 15.3577 47.4301 15.5162 47.7696 15.6028C48.199 15.7386 48.6471 15.8059 49.0975 15.802C49.4309 15.813 49.7645 15.7907 50.0934 15.7356C50.4131 15.6547 50.7243 15.5435 51.023 15.4036C51.2913 15.235 51.5182 15.008 51.6869 14.7397C51.8753 14.4183 51.9675 14.0496 51.9525 13.6774C51.9508 13.3357 51.8832 12.9975 51.7533 12.6815C51.4213 12.4823 51.2221 12.2831 50.9566 12.1503Z" fill="#FF8000"/>
<path d="M42.9431 9.22888H41.6152C41.5463 9.23354 41.4814 9.26302 41.4326 9.31185C41.3838 9.36068 41.3543 9.42556 41.3496 9.49446V13.2126C41.3456 13.3763 41.2999 13.5362 41.2168 13.6774C41.1417 13.8186 41.0261 13.9342 40.8849 14.0093C40.694 14.085 40.4923 14.1298 40.2873 14.1421C40.0997 14.1698 39.9087 14.1221 39.7562 14.0093C39.6873 13.9642 39.6283 13.9057 39.5827 13.8372C39.5371 13.7688 39.5057 13.6918 39.4906 13.611C39.4242 13.4782 39.4242 13.279 39.3578 13.0798V9.49446C39.3531 9.42556 39.3236 9.36068 39.2748 9.31185C39.226 9.26302 39.1611 9.23354 39.0922 9.22888H37.7643C37.6954 9.23354 37.6305 9.26302 37.5817 9.31185C37.5329 9.36068 37.5034 9.42556 37.4987 9.49446V12.947C37.4857 13.3245 37.5079 13.7024 37.5651 14.0757C37.605 14.4065 37.7184 14.7241 37.8971 15.0053C38.0502 15.2692 38.2825 15.4782 38.561 15.6028C38.9447 15.7387 39.3492 15.8061 39.7562 15.802C39.9576 15.8128 40.1595 15.7904 40.3537 15.7356C40.5529 15.6692 40.6857 15.6028 40.8849 15.5364C41.0333 15.446 41.1676 15.3342 41.2832 15.2044C41.2832 15.138 41.3496 15.138 41.3496 15.0716H41.416C41.4247 15.0716 41.4334 15.0734 41.4414 15.0767C41.4495 15.08 41.4568 15.0849 41.463 15.0911C41.4691 15.0973 41.474 15.1046 41.4774 15.1126C41.4807 15.1207 41.4824 15.1293 41.4824 15.138V15.4036C41.4871 15.4725 41.5166 15.5374 41.5654 15.5862C41.6142 15.6351 41.6791 15.6645 41.748 15.6692H42.9896C43.0585 15.6645 43.1234 15.6351 43.1722 15.5862C43.221 15.5374 43.2505 15.4725 43.2552 15.4036V9.42807C43.2241 9.36709 43.1765 9.31608 43.1178 9.28086C43.0591 9.24564 42.9916 9.22763 42.9232 9.22888" fill="#FF8000"/>
<path d="M71.3604 14.2085H68.4391C68.4303 14.2085 68.4217 14.2068 68.4137 14.2035C68.4056 14.2001 68.3983 14.1952 68.3921 14.1891C68.3859 14.1829 68.3811 14.1756 68.3777 14.1675C68.3744 14.1595 68.3727 14.1509 68.3727 14.1421V14.0757L71.0949 11.4863L71.2277 11.3535C71.2911 11.3087 71.3425 11.2489 71.3773 11.1794C71.412 11.1099 71.429 11.0328 71.4268 10.9552V9.62727C71.4222 9.55837 71.3927 9.4935 71.3439 9.44466C71.295 9.39583 71.2302 9.36635 71.1613 9.36169H66.4472C66.3783 9.36635 66.3134 9.39583 66.2646 9.44466C66.2158 9.4935 66.1863 9.55837 66.1816 9.62727V10.5568C66.1863 10.6257 66.2158 10.6906 66.2646 10.7394C66.3134 10.7882 66.3783 10.8177 66.4472 10.8224H69.0366C69.0542 10.8224 69.0711 10.8294 69.0836 10.8418C69.096 10.8543 69.103 10.8712 69.103 10.8888V10.9552L66.6464 13.3454L66.3144 13.6774L66.248 13.7438C66.1646 13.8601 66.1183 13.999 66.1152 14.1421V15.4036C66.1199 15.4725 66.1494 15.5374 66.1982 15.5863C66.247 15.6351 66.3119 15.6646 66.3808 15.6692H71.294C71.3629 15.6646 71.4278 15.6351 71.4767 15.5863C71.5255 15.5374 71.555 15.4725 71.5596 15.4036V14.4741C71.6924 14.3413 71.5596 14.2085 71.3604 14.2085Z" fill="#FF8000"/>
<path d="M107.545 6.04193H107.08C107.011 6.04659 106.946 6.07607 106.897 6.1249C106.849 6.17373 106.819 6.23861 106.814 6.30751V15.4036C106.819 15.4725 106.849 15.5374 106.897 15.5862C106.946 15.6351 107.011 15.6645 107.08 15.6692H107.478C107.547 15.6645 107.612 15.6351 107.661 15.5862C107.71 15.5374 107.739 15.4725 107.744 15.4036V6.30751C107.81 6.17472 107.678 6.04193 107.545 6.04193Z" fill="#FF8000"/>
<path d="M105.354 9.76002C105.154 9.54535 104.902 9.38536 104.623 9.29525C104.307 9.16541 103.969 9.09778 103.627 9.09607C103.186 9.1039 102.754 9.21777 102.366 9.42804C102.196 9.5158 102.039 9.62761 101.901 9.76002L101.835 9.82642V9.89281H101.768C101.702 9.89281 101.702 9.89281 101.702 9.82642V9.42804C101.697 9.35914 101.668 9.29427 101.619 9.24543C101.57 9.1966 101.505 9.16713 101.436 9.16246H100.972C100.903 9.16713 100.838 9.1966 100.789 9.24543C100.74 9.29427 100.711 9.35914 100.706 9.42804V15.4036C100.711 15.4725 100.74 15.5374 100.789 15.5862C100.838 15.635 100.903 15.6645 100.972 15.6692H101.436C101.505 15.6645 101.57 15.635 101.619 15.5862C101.668 15.5374 101.697 15.4725 101.702 15.4036V12.283C101.681 11.9673 101.726 11.6506 101.835 11.3535C101.905 11.0935 102.017 10.8468 102.167 10.6232C102.321 10.418 102.527 10.2576 102.764 10.1584C103.037 10.0447 103.333 9.99913 103.627 10.0256C103.829 10.0102 104.031 10.0445 104.217 10.1256C104.402 10.2066 104.564 10.3319 104.69 10.4904C104.9 10.8542 105.014 11.2654 105.022 11.6855V15.4036C105.026 15.4725 105.056 15.5374 105.105 15.5862C105.154 15.635 105.218 15.6645 105.287 15.6692H105.752C105.821 15.6645 105.886 15.635 105.935 15.5862C105.984 15.5374 106.013 15.4725 106.018 15.4036V11.4863C106.006 11.1508 105.962 10.8172 105.885 10.4904C105.724 10.2357 105.546 9.9917 105.354 9.76002Z" fill="#FF8000"/>
<path d="M99.1799 14.4077C99.0919 14.3984 99.0029 14.4118 98.9216 14.4467C98.8402 14.4816 98.7691 14.5367 98.7152 14.6069C98.5877 14.7413 98.5166 14.9196 98.5166 15.1049C98.5166 15.2901 98.5877 15.4684 98.7152 15.6028C98.7775 15.6735 98.8541 15.73 98.9399 15.7688C99.0258 15.8076 99.1189 15.8276 99.2131 15.8276C99.3073 15.8276 99.4004 15.8076 99.4863 15.7688C99.5721 15.73 99.6488 15.6735 99.7111 15.6028C99.8386 15.4684 99.9096 15.2901 99.9096 15.1049C99.9096 14.9196 99.8386 14.7413 99.7111 14.6069C99.5554 14.4936 99.3718 14.4247 99.1799 14.4077Z" fill="#FF8000"/>
</svg>
