<svg viewBox="0 0 384 320" fill="none" xmlns="http://www.w3.org/2000/svg">
<rect x="256" y="192" width="128" height="128" fill="#4CA6FF"/>
<path d="M32 160C32 151.163 39.1634 144 48 144H80C88.8366 144 96 151.163 96 160V192H32V160Z" fill="#0073E5"/>
<rect y="192" width="240" height="128" fill="#0073E5"/>
<rect x="144" y="48" width="240" height="128" fill="#99CCFF"/>
<path d="M176 16C176 7.16344 183.163 0 192 0H224C232.837 0 240 7.16344 240 16V48H176V16Z" fill="#99CCFF"/>
<path d="M288 16C288 7.16344 295.163 0 304 0H336C344.837 0 352 7.16344 352 16V48H288V16Z" fill="#99CCFF"/>
</svg>
