<svg viewBox="0 0 320 320" fill="none" xmlns="http://www.w3.org/2000/svg">
<path fill-rule="evenodd" clip-rule="evenodd" d="M128 0H192V36.0326C203.745 39.0554 214.837 43.7033 225.023 49.7222L250.51 24.2355L295.764 69.4903L270.278 94.9771C276.297 105.163 280.945 116.255 283.967 128H320V192H283.967C280.945 203.745 276.297 214.837 270.278 225.023L295.764 250.51L250.51 295.764L225.023 270.278C214.837 276.297 203.745 280.945 192 283.967V320H128V283.967C116.255 280.945 105.163 276.297 94.9771 270.278L69.4903 295.764L24.2355 250.51L49.7222 225.023C43.7033 214.837 39.0554 203.745 36.0326 192H0V128H36.0326C39.0554 116.255 43.7033 105.163 49.7222 94.9771L24.2355 69.4903L69.4903 24.2355L94.9771 49.7222C105.163 43.7033 116.255 39.0554 128 36.0326V0ZM160 96C124.654 96 96 124.654 96 160C96 195.346 124.654 224 160 224C195.346 224 224 195.346 224 160C224 124.654 195.346 96 160 96Z" fill="#0073E5"/>
</svg>
