<svg viewBox="0 0 4096 601" fill="none" xmlns="http://www.w3.org/2000/svg">
<path d="M0 218C236.462 325.589 345.788 499.81 605.5 493.5C835.909 487.902 1184.92 478.815 1144 252C1108.58 55.6869 832.154 -64.0994 672.5 55.5C487.16 194.341 815.347 427.625 1020 536C1334.13 702.347 1582.03 462.376 1900 303.5C2024.68 241.204 2069.8 150.782 2205.5 119C2423.62 67.915 2767.26 58.2866 2755.5 282C2745.04 480.836 2384.5 696.213 2302 515C2267.78 439.828 2275.74 381.812 2302 303.5C2365.6 113.785 2580.43 133.52 2780 119C3088.69 96.5399 3204.03 459.4 3511.5 424C3638.72 409.353 3709.12 380.086 3823 321.5C3941.04 260.774 4003.64 214.339 4096 119" stroke="#178757" stroke-width="36" stroke-dasharray="48 48"/>
</svg>
