<svg viewBox="0 0 448 448" fill="none" xmlns="http://www.w3.org/2000/svg">
<circle cx="224" cy="224" r="96" fill="#99CCFF"/>
<path fill-rule="evenodd" clip-rule="evenodd" d="M192 0H256V51.8855C327.486 64.9419 383.86 120.946 397.064 192H448V256H397.064C383.86 327.054 327.486 383.058 256 396.114V448H192V396.114C120.514 383.058 64.1403 327.054 50.9357 256H0V192H50.9357C64.1403 120.946 120.514 64.9419 192 51.8855V0ZM224 351C294.951 351 352 293.883 352 224C352 154.117 294.951 97 224 97C153.049 97 96 154.117 96 224C96 293.883 153.049 351 224 351Z" fill="#0073E5"/>
</svg>
